<svg width="120" height="104" viewBox="0 0 120 104" fill="none" xmlns="http://www.w3.org/2000/svg"><path d="M100.136 45.782c-26.462-15.306-53.81-15.306-80.272 0C6.599 53.47 0 61.225 0 68.98c0 7.755 6.599 15.51 19.864 23.197 26.463 15.306 53.81 15.306 80.272 0C113.401 84.557 120 76.735 120 68.98c0-7.756-6.599-15.51-19.864-23.198z" fill="#949494"/><path d="M100.136 80.612c-26.462 15.306-53.81 15.306-80.272 0C6.599 72.925 0 65.17 0 57.415V68.98c0 7.755 6.599 15.51 19.864 23.197 26.463 15.306 53.81 15.306 80.272 0C113.401 84.557 120 76.735 120 68.979V57.416c0 7.755-6.599 15.51-19.864 23.197z" fill="url(#a)"/><path d="M100.136 34.218c-26.462-15.307-53.81-15.307-80.272 0C6.599 41.905 0 49.66 0 57.415c0 7.755 6.599 15.51 19.864 23.197 26.463 15.306 53.81 15.306 80.272 0C113.401 72.993 120 65.17 120 57.415c0-7.755-6.599-15.51-19.864-23.197z" fill="#9FCB00"/><path d="M35.85 52.517l3.47 2.04 36.734 21.225c2.177 1.293 4.218 1.36 5.647.544l5.85-3.4c1.429-.817 2.313-2.654 2.313-5.17V38.162c0-5.102-3.606-11.292-7.96-13.81L45.17 3.13 41.7 1.09C39.525-.205 37.484-.273 36.055.543l-5.85 3.402c-1.428.816-2.313 2.585-2.313 5.102v29.591c0 5.102 3.538 11.361 7.96 13.878z" fill="#C23700"/><path d="M27.891 9.048v29.591c0 5.102 3.606 11.293 7.96 13.81l3.469 2.04 36.734 21.225c2.177 1.293 4.218 1.36 5.647.544 1.428-.816 2.313-2.653 2.313-5.17V41.497c0-5.102-3.606-11.293-7.96-13.81L39.32 6.463l-3.47-2.041c-2.177-1.293-4.217-1.36-5.646-.544-1.428.884-2.313 2.653-2.313 5.17z" fill="#262626"/><path d="M34.014 27.415c0-1.429-.953-3.13-2.11-3.946-.067-.068-.135-.136-.271-.136-.068-.068-.204-.068-.272-.136-1.157-.544-2.11.068-2.11 1.497 0 1.428.885 3.061 2.11 3.945.068.068.204.137.272.204.068.069.136.069.272.137 1.156.476 2.109-.137 2.109-1.565z" fill="#525252"/><path d="M76.054 71.156c2.177 1.293 4.014.204 4.014-2.313v-29.66c0-2.516-1.769-5.646-4.014-6.938L41.701 12.449 75.306 70.68l.748.476z" fill="#1AB5FF"/><path d="M41.7 12.449l-2.38-1.36c-2.177-1.293-4.014-.205-4.014 2.312v29.592c0 2.517 1.769 5.646 4.014 6.939l35.986 20.816L41.701 12.45z" fill="#169DFF"/><path d="M81.905 24.286L45.17 3.06 41.7 1.02C39.525-.273 37.484-.34 36.055.475l-5.85 3.402c1.429-.817 3.47-.749 5.646.544l3.47 2.04 36.734 21.225c4.422 2.517 7.96 8.776 7.96 13.81v29.591c0 2.517-.885 4.354-2.313 5.17l5.85-3.4c1.429-.817 2.313-2.654 2.313-5.17V38.162c.068-5.102-3.538-11.292-7.96-13.877z" fill="url(#b)"/><defs><linearGradient id="a" y1="80.512" x2="120.003" y2="80.512" gradientUnits="userSpaceOnUse"><stop stop-color="#B3E500"/><stop offset=".055" stop-color="#B4E700"/><stop offset=".301" stop-color="#B6EA00"/><stop offset=".335" stop-color="#B4E700"/><stop offset=".569" stop-color="#A8D600"/><stop offset=".744" stop-color="#A4D000"/><stop offset="1" stop-color="#809B00"/></linearGradient><linearGradient id="b" x1="46.008" y1="-5.217" x2="90.229" y2="71.376" gradientUnits="userSpaceOnUse"><stop stop-color="#383838"/><stop offset=".096" stop-color="#3D3B3C"/><stop offset=".301" stop-color="#403D3E"/><stop offset=".549" stop-color="#302D2E"/><stop offset=".744" stop-color="#2A2728"/><stop offset="1"/></linearGradient></defs></svg>