<svg width="120" height="105" viewBox="0 0 120 105" fill="none" xmlns="http://www.w3.org/2000/svg"><path d="M100.136 46.19c-26.462-15.306-53.81-15.306-80.272 0C6.599 53.81 0 61.566 0 69.388c0 7.755 6.599 15.51 19.864 23.197 26.463 15.306 53.81 15.306 80.272 0C113.401 84.966 120 77.143 120 69.388c0-7.823-6.599-15.578-19.864-23.198z" fill="#949494"/><path d="M100.136 80.953c-26.462 15.306-53.81 15.306-80.272 0C6.599 73.332 0 65.578 0 57.823v11.565c0 7.755 6.599 15.51 19.864 23.197 26.463 15.306 53.81 15.306 80.272 0C113.401 84.966 120 77.143 120 69.388V57.823c0 7.755-6.599 15.51-19.864 23.13z" fill="url(#a)"/><path d="M100.136 34.626c-26.462-15.306-53.81-15.306-80.272 0C6.599 42.245 0 50 0 57.823c0 7.755 6.599 15.51 19.864 23.197 26.463 15.307 53.81 15.307 80.272 0C113.401 73.403 120 65.578 120 57.823c0-7.823-6.599-15.578-19.864-23.197z" fill="#FFDB32"/><path d="M96.735 53.197c0-2.449-1.089-4.898-3.266-7.347V23.742L68.367 9.252v-4.83c0-1.157-.748-2.245-2.245-3.13-2.993-1.7-7.823-1.7-10.816 0-1.496.885-2.245 1.973-2.245 3.13v28.163c-5.918.953-11.769 3.061-17.619 6.463-8.095 4.694-12.177 9.456-12.177 14.217v3.742c0 4.762 4.082 9.524 12.177 14.218 16.19 9.387 32.925 9.387 49.116 0 8.095-4.694 12.177-9.456 12.177-14.218v-3.81z" fill="#D19600"/><path d="M84.558 67.415c-16.19 9.388-32.925 9.388-49.116 0-8.095-4.694-12.177-9.456-12.177-14.218v3.742c0 4.762 4.082 9.524 12.177 14.218 16.19 9.387 32.925 9.387 49.116 0 8.095-4.694 12.177-9.456 12.177-14.218v-3.742c0 4.762-4.082 9.524-12.177 14.218z" fill="url(#b)"/><path d="M84.558 39.048c-16.19-9.388-32.925-9.388-49.116 0-8.095 4.694-12.177 9.456-12.177 14.218 0 4.761 4.082 9.523 12.177 14.217 16.19 9.388 32.925 9.388 49.116 0 8.095-4.694 12.177-9.456 12.177-14.218 0-4.83-4.082-9.523-12.177-14.217z" fill="#B0CB00"/><path d="M66.123 7.551c-2.994 1.7-7.824 1.7-10.817 0-1.496-.884-2.245-1.973-2.245-3.13v49.797c0 1.156.748 2.245 2.245 3.129 2.993 1.7 7.823 1.7 10.817 0 1.496-.884 2.244-1.973 2.244-3.13V4.423c0 1.156-.748 2.245-2.245 3.129z" fill="url(#c)"/><path d="M66.123 7.551c-2.994 1.7-7.824 1.7-10.817 0-1.496-.884-2.245-1.973-2.245-3.13 0-1.156.748-2.244 2.245-3.128 2.993-1.701 7.823-1.701 10.817 0 1.496.884 2.244 1.972 2.244 3.129 0 1.156-.748 2.245-2.245 3.13z" fill="#383838"/><path d="M61.429 44.286V13.197l25.17 14.49v31.157l-25.17-14.558z" fill="#F24D1A"/><path d="M86.599 58.844V27.687l6.87-3.945V54.83l-6.87 4.014z" fill="#D93A12"/><path d="M93.47 23.742L68.3 9.252c-.137.952-.885 1.973-2.178 2.72-1.292.75-2.993 1.157-4.693 1.293l25.17 14.49 6.87-4.013z" fill="#FF5D12"/><defs><linearGradient id="a" y1="80.895" x2="120.003" y2="80.895" gradientUnits="userSpaceOnUse"><stop stop-color="#FFED44"/><stop offset=".072" stop-color="#FFF047"/><stop offset=".301" stop-color="#FFF24A"/><stop offset=".549" stop-color="#FFE23A"/><stop offset=".744" stop-color="#FFDC34"/><stop offset="1" stop-color="#F9B519"/></linearGradient><linearGradient id="b" x1="23.279" y1="65.696" x2="96.724" y2="65.696" gradientUnits="userSpaceOnUse"><stop stop-color="#ABD900"/><stop offset=".055" stop-color="#ABDB00"/><stop offset=".301" stop-color="#ABDE00"/><stop offset=".549" stop-color="#ABCE00"/><stop offset=".744" stop-color="#ABC800"/><stop offset="1" stop-color="#ABC200"/></linearGradient><linearGradient id="c" x1="53.046" y1="31.528" x2="68.351" y2="31.528" gradientUnits="userSpaceOnUse"><stop stop-color="#484848"/><stop offset=".072" stop-color="#4B4B4B"/><stop offset=".301" stop-color="#4E4E4E"/><stop offset=".537" stop-color="#404040"/><stop offset=".744" stop-color="#3A3A3A"/><stop offset="1" stop-color="#161616"/></linearGradient></defs></svg>