<svg width="120" height="93" viewBox="0 0 120 93" fill="none" xmlns="http://www.w3.org/2000/svg"><path d="M100.136 35.034c-26.462-15.306-53.81-15.306-80.272 0C6.599 42.654 0 50.408 0 58.164c0 7.754 6.599 15.51 19.864 23.197 26.463 15.306 53.81 15.306 80.272 0C113.401 73.74 120 65.918 120 58.163c0-7.755-6.599-15.51-19.864-23.129z" fill="#949494"/><path d="M100.136 69.796c-26.462 15.306-53.81 15.306-80.272 0C6.599 62.176 0 54.354 0 46.599v11.564c0 7.755 6.599 15.51 19.864 23.198 26.463 15.306 53.81 15.306 80.272 0C113.401 73.74 120 65.918 120 58.163V46.6c0 7.755-6.599 15.578-19.864 23.197z" fill="url(#a)"/><path d="M100.136 23.47c-26.462-15.307-53.81-15.307-80.272 0C6.599 31.087 0 38.842 0 46.598c0 7.755 6.599 15.51 19.864 23.197 26.463 15.306 53.81 15.306 80.272 0C113.401 62.176 120 54.354 120 46.599c0-7.755-6.599-15.51-19.864-23.13z" fill="#EF5619"/><path d="M80.34 34.898c-13.401-7.755-27.21-7.755-40.612 0-6.735 3.877-10.068 7.755-10.068 11.7 0 3.946 3.333 7.892 10.068 11.701 13.401 7.755 27.21 7.755 40.612 0 6.667-3.877 10.068-7.823 10.068-11.7-.068-3.946-3.401-7.824-10.068-11.701z" fill="#EF6719"/><path d="M70.204 4.558c-8.3-4.83-15.646-5.714-20-3.197L45.85 3.878c-.476.272-.884.612-1.292.952-5.102-2.245-9.524-2.45-12.381-.816l-3.401 1.972c-2.11 1.225-3.402 3.538-3.402 6.735 0 4.354 2.313 9.592 5.919 14.49l-3.266 5.85 8.708.136c2.38 2.245 4.966 4.218 7.755 5.783 6.122 3.537 11.633 4.353 15.102 2.72 2.04 1.565 4.15 3.062 6.326 4.354 3.538 2.041 6.871 3.334 9.864 4.014l11.089 12.517 4.354-2.517-3.946-11.633 3.061-1.768c2.721-1.565 4.354-4.49 4.354-8.572-.068-10.748-11.02-25.782-24.49-33.537z" fill="#CF2D00"/><path d="M47.891 6.463c-6.53-3.742-12.245-4.422-15.714-2.45l-3.401 1.973c3.469-1.972 9.183-1.292 15.714 2.45 10.544 6.054 19.115 17.89 19.115 26.326 0 3.265-1.224 5.51-3.4 6.734l3.4-1.972c2.11-1.225 3.402-3.538 3.402-6.735 0-8.435-8.572-20.204-19.116-26.326z" fill="url(#b)"/><path d="M44.49 8.435c-6.53-3.741-12.245-4.49-15.715-2.449-2.108 1.225-3.4 3.538-3.4 6.735 0 4.354 2.312 9.592 5.918 14.49l-3.266 5.85 8.708.136c2.38 2.245 4.966 4.218 7.755 5.783 6.53 3.741 12.245 4.49 15.714 2.449 2.109-1.225 3.401-3.538 3.401-6.735 0-8.368-8.571-20.204-19.115-26.259z" fill="#FFC600"/><path d="M91.156 60.136l-4.285 2.517-4.15-12.313 4.286-2.449 4.15 12.245z" fill="url(#c)"/><path d="M70.204 4.558c-8.3-4.83-15.646-5.714-20-3.197L45.85 3.878c4.422-2.517 11.701-1.633 20.068 3.197 13.47 7.755 24.354 22.789 24.354 33.605 0 4.15-1.633 7.007-4.354 8.572l4.354-2.517c2.721-1.565 4.354-4.49 4.354-8.572 0-10.816-10.953-25.85-24.422-33.605z" fill="url(#d)"/><path d="M82.721 50.34a9.79 9.79 0 0 0 3.265-1.156c2.721-1.565 4.354-4.49 4.354-8.572 0-10.748-10.884-25.782-24.354-33.605-8.299-4.762-15.646-5.715-20.068-3.198-2.789 1.633-4.421 4.558-4.421 8.708 0 10.748 10.884 25.782 24.353 33.605 3.538 2.041 6.871 3.334 9.864 4.014l11.089 12.517L82.72 50.34z" fill="#B1D400"/><path d="M65.986 21.428c-1.224-.68-2.313-.748-3.129-.34l-3.13 1.77c.817-.477 1.906-.41 3.13.34 2.45 1.428 4.422 4.83 4.422 7.686 0 1.429-.476 2.381-1.293 2.857l3.13-1.768c.816-.476 1.292-1.429 1.292-2.857 0-2.858-1.973-6.259-4.422-7.688z" fill="#fff"/><path d="M58.435 25.782c0 2.858 1.973 6.259 4.422 7.687 1.225.68 2.313.749 3.13.34.816-.408 1.292-1.428 1.292-2.857 0-2.789-1.973-6.258-4.422-7.687-1.224-.68-2.313-.748-3.13-.34-.747.476-1.292 1.429-1.292 2.857z" fill="#F0F0F0"/><path d="M54.422 16.19c-.885-.544-1.7-.544-2.313-.204l-2.313 1.293c.612-.34 1.428-.272 2.313.204 1.769 1.02 3.265 3.537 3.265 5.646 0 1.02-.34 1.769-.952 2.11l2.313-1.293c.612-.34.952-1.089.952-2.11 0-2.108-1.428-4.625-3.265-5.646z" fill="#fff"/><path d="M48.912 19.388c0 2.04 1.428 4.626 3.265 5.646.884.544 1.7.544 2.313.204.612-.34.952-1.088.952-2.109 0-2.04-1.428-4.626-3.265-5.646-.885-.544-1.7-.544-2.313-.204-.612.34-.952 1.088-.952 2.109z" fill="#F0F0F0"/><path d="M77.483 29.388c-.884-.544-1.7-.544-2.313-.204l-2.313 1.292c.612-.34 1.429-.272 2.313.204 1.769 1.02 3.265 3.538 3.265 5.647 0 1.02-.34 1.768-.952 2.108l2.313-1.292c.612-.34.952-1.089.952-2.109 0-2.109-1.496-4.626-3.265-5.646z" fill="#fff"/><path d="M71.905 32.517c0 2.04 1.428 4.626 3.265 5.646.884.545 1.7.545 2.313.204.612-.34.952-1.088.952-2.108 0-2.041-1.428-4.626-3.265-5.647-.884-.544-1.7-.544-2.313-.204-.544.408-.952 1.089-.952 2.11z" fill="#F0F0F0"/><defs><linearGradient id="a" y1="69.718" x2="120.003" y2="69.718" gradientUnits="userSpaceOnUse"><stop stop-color="#FF682B"/><stop offset=".072" stop-color="#FF6B2E"/><stop offset=".301" stop-color="#FF6D31"/><stop offset=".549" stop-color="#F65D21"/><stop offset=".744" stop-color="#F3571B"/><stop offset="1" stop-color="#C93000"/></linearGradient><linearGradient id="b" x1="38.344" y1=".444" x2="61.575" y2="40.681" gradientUnits="userSpaceOnUse"><stop stop-color="#FFA500"/><stop offset=".055" stop-color="#FFA700"/><stop offset=".301" stop-color="#FA0"/><stop offset=".549" stop-color="#FF9A00"/><stop offset=".744" stop-color="#FF9400"/><stop offset="1" stop-color="#FF6D00"/></linearGradient><linearGradient id="c" x1="83.764" y1="49.75" x2="90.112" y2="60.745" gradientUnits="userSpaceOnUse"><stop stop-color="#99C900"/><stop offset=".034" stop-color="#99C900"/><stop offset=".301" stop-color="#99C900"/><stop offset=".414" stop-color="#8AC500"/><stop offset=".549" stop-color="#81C300"/><stop offset=".736" stop-color="#7EC200"/><stop offset="1" stop-color="#7EC200"/></linearGradient><linearGradient id="d" x1="58.037" y1="-3.157" x2="87.687" y2="48.199" gradientUnits="userSpaceOnUse"><stop stop-color="#99C900"/><stop offset=".034" stop-color="#99C900"/><stop offset=".301" stop-color="#99C900"/><stop offset=".414" stop-color="#8AC500"/><stop offset=".549" stop-color="#81C300"/><stop offset=".736" stop-color="#7EC200"/><stop offset="1" stop-color="#7EC200"/></linearGradient></defs></svg>