<svg width="102" height="27" viewBox="0 0 102 27" fill="none" xmlns="http://www.w3.org/2000/svg"><path d="M8.908 4.41H6.48v.894h1.39v1.421c-.497.152-1.008.274-1.57.274-1.72 0-2.925-1.088-2.925-2.631 0-1.506 1.218-2.653 2.788-2.653.871 0 1.75.236 2.6.679V1.39C7.622.93 7.03.8 6.18.8 3.977.8 2.3 2.356 2.3 4.397c0 2.033 1.632 3.517 3.849 3.517 1.007 0 1.79-.164 2.758-.57V4.41zM10.222.893v6.933h1.038l-.004-3.016h.435c.532 0 .968.17 1.922 1.59l.955 1.426h1.24c-.497-.662-.678-.894-.985-1.37-.55-.865-.955-1.506-1.61-1.924.774-.295 1.21-.894 1.21-1.7 0-1.197-.911-1.943-2.376-1.943h-1.825v.004zm.942.852h.668c1.007 0 1.412.396 1.42 1.045.01.578-.312 1.135-1.424 1.135h-.669l.005-2.18z" fill="#2D3743"/><path d="M19.018.85h-.73l-3.105 6.976h1.06l.91-2.046h3.075l.963 2.046h1.06L19.018.85zm-.382 1.527l1.165 2.51h-2.247l1.082-2.51zM23.007.893v6.933h1.038V4.81h1.082c1.676 0 2.437-.839 2.437-1.927 0-1.096-.722-1.994-2.3-1.994h-2.257v.004zm1.043.894h1.218c.945 0 1.231.548 1.231 1.058 0 .692-.501 1.084-1.27 1.084h-1.18V1.787zM34.605.893h-1.038v3.032h-4.05V.893h-1.038v6.933h1.037l-.004-3.016h4.05l.005 3.016h1.038V.893zm2.48 0h-1.038v6.933h1.038V.893zm5.106.397a2.975 2.975 0 0 0-1.61-.49c-1.323 0-2.194.721-2.194 1.851 0 1.902 3.127 2.062 3.127 3.496 0 .388-.37.873-1.174.873-.713 0-1.381-.354-1.909-1.008v1.261c.602.439 1.24.641 2.023.641 1.166 0 2.027-.793 2.027-1.88 0-2.206-3.127-2.185-3.127-3.518 0-.489.48-.822 1.144-.822.488 0 1.082.16 1.698.721V1.29h-.005zm.893 3.07c0 1.88 1.495 3.558 3.861 3.558 2.45 0 3.915-1.686 3.915-3.559C50.86 2.428 49.356.8 46.968.8c-2.349 0-3.884 1.636-3.884 3.56zm1.007 0c0-1.527 1.197-2.645 2.81-2.645 1.623 0 2.82 1.118 2.82 2.644 0 1.514-1.197 2.644-2.82 2.644-1.61 0-2.81-1.13-2.81-2.644zm16.466 3.137h.128V7.18h.075c.096 0 .131.034.233.199l.07.118h.154l-.097-.144c-.066-.1-.114-.164-.18-.185v-.004c.132-.009.22-.093.22-.216 0-.08-.066-.194-.255-.194h-.343v.743h-.005zm.123-.418v-.223h.203c.083 0 .14.042.14.11 0 .075-.066.113-.162.113h-.18zm.796.034c0 .32-.272.578-.602.578a.591.591 0 0 1-.603-.578.59.59 0 0 1 .603-.578c.33 0 .602.262.602.578zm.12 0c0-.384-.326-.692-.727-.692-.4 0-.72.308-.72.692 0 .384.32.696.72.696a.71.71 0 0 0 .726-.696zm-8.753-5.326v2.138h2.82v.885h-2.82v3.016h-1.038V.893h9.808v.894H59.11v6.039h-1.038v-6.04h-5.229zM.16 26.347l5.326-14.962h1.979l5.673 14.962H11.05l-1.618-4.533H3.63l-1.522 4.533H.16zm4.002-6.144h4.702l-1.447-4.146c-.44-1.256-.77-2.294-.985-3.103a20.45 20.45 0 0 1-.748 2.859l-1.522 4.39zm10.568 6.144V11.385h6.149c1.236 0 2.177.135 2.819.405.642.27 1.157.742 1.54 1.425a4.49 4.49 0 0 1 .575 2.256c0 1.063-.316 1.957-.954 2.682-.638.73-1.619 1.19-2.951 1.388.484.253.853.501 1.108.746.537.531 1.043 1.193 1.522 1.99l2.41 4.074h-2.309l-1.834-3.112c-.537-.898-.976-1.586-1.324-2.062-.347-.477-.66-.81-.932-1a2.6 2.6 0 0 0-.836-.396c-.206-.046-.55-.072-1.02-.072h-2.129v6.642H14.73v-.004zm1.834-8.358h3.945c.84 0 1.496-.093 1.966-.283.47-.185.831-.485 1.078-.898.246-.413.37-.86.37-1.341 0-.709-.238-1.29-.718-1.746-.475-.455-1.227-.683-2.256-.683h-4.385v4.95zM38.682 21.1l1.834.503c-.383 1.627-1.078 2.867-2.076 3.72-.998.851-2.221 1.281-3.663 1.281-1.496 0-2.71-.329-3.646-.982-.937-.658-1.65-1.607-2.138-2.851s-.734-2.581-.734-4.01c0-1.557.277-2.919.826-4.079.55-1.16 1.337-2.04 2.358-2.644 1.02-.603 2.137-.902 3.364-.902 1.386 0 2.555.38 3.501 1.143.946.763 1.605 1.834 1.98 3.213l-1.808.46c-.322-1.088-.788-1.88-1.399-2.379-.611-.497-1.381-.746-2.309-.746-1.064 0-1.957.274-2.674.827-.717.552-1.218 1.29-1.508 2.218a9.56 9.56 0 0 0-.436 2.872c0 1.273.172 2.382.515 3.331.343.949.88 1.657 1.6 2.13a4.261 4.261 0 0 0 2.358.704c1.03 0 1.895-.32 2.612-.957.708-.646 1.188-1.594 1.443-2.851zm4.248 5.247V11.385h1.834v6.144h7.208v-6.144h1.834v14.962h-1.834v-7.055h-7.208v7.05H42.93v.005zm14.342 0V11.385h1.834v14.962h-1.834zM72.33 21.1l1.835.503c-.388 1.627-1.078 2.867-2.076 3.72-.999.851-2.221 1.281-3.664 1.281-1.495 0-2.709-.329-3.646-.982-.936-.658-1.649-1.607-2.137-2.851s-.735-2.581-.735-4.01c0-1.557.278-2.919.827-4.079.55-1.16 1.337-2.04 2.353-2.644a6.49 6.49 0 0 1 3.365-.902c1.385 0 2.555.38 3.5 1.143.946.763 1.606 1.834 1.98 3.213l-1.808.46c-.321-1.088-.787-1.88-1.399-2.379-.611-.497-1.38-.746-2.309-.746-1.064 0-1.957.274-2.674.827-.716.552-1.218 1.29-1.508 2.218a9.563 9.563 0 0 0-.435 2.872c0 1.273.171 2.382.514 3.331.343.949.88 1.657 1.6 2.13a4.261 4.261 0 0 0 2.358.704c1.03 0 1.9-.32 2.613-.957.716-.646 1.196-1.594 1.447-2.851zm2.675 5.247l5.326-14.962h1.979l5.673 14.962h-2.089l-1.618-4.534h-5.797l-1.522 4.534h-1.952zm3.998-6.144h4.7l-1.446-4.146c-.44-1.256-.77-2.294-.985-3.103-.176.957-.427 1.91-.748 2.859l-1.522 4.39zm10.541 6.144V11.385h4.777c1.077 0 1.9.071 2.467.215a4.575 4.575 0 0 1 2.032 1.07c.73.667 1.28 1.52 1.64 2.556.361 1.038.545 2.223.545 3.556 0 1.134-.123 2.142-.369 3.019-.246.877-.563 1.602-.945 2.18-.388.574-.805 1.03-1.263 1.358-.457.329-1.011.582-1.653.75-.647.17-1.39.254-2.23.254h-5v.004zm1.834-1.767h2.96c.915 0 1.632-.093 2.15-.274.52-.186.938-.443 1.245-.776.436-.468.774-1.1 1.016-1.894.242-.792.365-1.754.365-2.884 0-1.565-.237-2.766-.712-3.61-.475-.839-1.056-1.404-1.737-1.69-.493-.203-1.285-.309-2.375-.309h-2.912V24.58z" fill="#2D3743"/></svg>