<?xml version="1.0" encoding="utf-8"?><svg xmlns="http://www.w3.org/2000/svg" xmlns:xlink="http://www.w3.org/1999/xlink"><symbol viewBox="0 0 16 16" id="Homework" xmlns="http://www.w3.org/2000/svg"><path d="M4.76 12.3L3.7 11.24 5.44 9.5 3.7 7.76 4.76 6.7l2.8 2.8-2.8 2.8z"/><path d="M0 0v16h16V0H0zm6 1h1v1H6V1zM4 1h1v1H4V1zM2 1h1v1H2V1zm12 13H2V3h12v11z"/></symbol><symbol viewBox="0 0 60 60" id="Play" xmlns="http://www.w3.org/2000/svg"><circle cx="30" cy="30" r="30"/><path d="M42 29.5L23.25 40.325v-21.65L42 29.5z"/></symbol><symbol viewBox="0 0 16 16" id="Plus" xmlns="http://www.w3.org/2000/svg"><path d="M4.25 7.125h7.375V9.25H4.25z"/><path d="M6.875 11.875V4.5H9v7.375z"/><path fill-rule="evenodd" clip-rule="evenodd" d="M8 13.875a5.875 5.875 0 100-11.75 5.875 5.875 0 000 11.75zM8 16A8 8 0 108 0a8 8 0 000 16z"/></symbol><symbol viewBox="0 0 50 50" id="Round-Facebook" xmlns="http://www.w3.org/2000/svg"><circle cx="25" cy="25" r="25"/><g clip-path="url(#adclip0)"><path d="M21.381 38.333h5.524V25h4.285l.477-4.667h-4.762v-2.952c0-1.048.476-1.143.952-1.143h3.714v-4.571h-4.38c-4.953 0-5.81 3.428-5.81 5.619v3.047h-3.048V25h3.048v13.333z"/></g><defs><clipPath id="adclip0"><path transform="translate(11.667 11.667)" d="M0 0h26.667v26.667H0z"/></clipPath></defs></symbol><symbol viewBox="0 0 50 50" id="Round-Mail" xmlns="http://www.w3.org/2000/svg"><circle cx="25" cy="25" r="25"/><path d="M36.667 23.704c0 1.383-.26 2.592-.694 3.716-.434 1.123-1.041 1.987-1.822 2.679a4.49 4.49 0 01-2.776.95 3.725 3.725 0 01-1.908-.518c-.52-.346-.954-.778-1.214-1.296h-.174c-1.04 1.21-2.342 1.814-3.903 1.814-1.648 0-3.036-.518-3.99-1.555-.954-1.037-1.475-2.247-1.475-4.062 0-1.987.607-3.63 1.909-4.84 1.3-1.21 2.949-1.814 5.03-1.814.781 0 1.735.086 2.69.26.954.172 1.821.345 2.428.604l-.347 7c0 1.296.347 1.988 1.128 1.988.607 0 1.128-.432 1.474-1.297.347-.864.521-2.074.521-3.456a8.773 8.773 0 00-.954-4.062c-.607-1.21-1.562-2.074-2.69-2.68-1.127-.604-2.515-.95-3.99-.95-1.907 0-3.642.432-5.03 1.21-1.388.605-2.516 1.729-3.21 3.198-.694 1.469-1.127 3.197-1.127 5.185 0 2.592.694 4.667 2.082 6.05 1.387 1.382 3.47 2.073 6.071 2.073 1.041 0 2.082-.086 3.296-.345 1.215-.26 2.43-.519 3.557-.951v2.765c-2.082.865-4.337 1.297-6.766 1.297-3.643 0-6.419-.95-8.5-2.852-1.909-1.901-2.95-4.58-2.95-7.95 0-2.334.52-4.495 1.562-6.396 1.04-1.901 2.515-3.457 4.423-4.494 1.909-1.037 4.077-1.642 6.593-1.642 2.081 0 3.99.432 5.638 1.297 1.648.864 2.95 2.074 3.816 3.63.868 1.555 1.302 3.37 1.302 5.444zm-14.66 1.815c0 1.987.781 3.024 2.43 3.024.867 0 1.474-.259 1.994-.864.434-.605.694-1.555.78-2.938l.174-3.111c-.52-.087-1.04-.173-1.648-.173-1.214 0-2.081.345-2.775 1.123-.608.605-.955 1.642-.955 2.939z"/></symbol><symbol viewBox="0 0 50 50" id="Round-VK" xmlns="http://www.w3.org/2000/svg"><circle cx="25" cy="25" r="25"/><g clip-path="url(#afclip0)"><path d="M35.457 27.524c-2.188-2-1.903-1.715.762-5.238 1.617-2.19 2.284-3.429 2.093-4-.19-.572-1.427-.381-1.427-.381h-3.997s-.285 0-.476.095c-.19.095-.38.381-.38.381s-.667 1.619-1.523 3.048c-1.808 3.047-2.474 3.142-2.76 2.952-.666-.476-.476-1.714-.476-2.667 0-2.857.476-4.38-.856-4.666-.476-.096-.761-.381-1.713-.381h-1.332c-.952 0-1.713.285-2.19.571-.475.19-.855.857-.665.857.285 0 .856.19 1.142.667.476.476.476 1.81.476 1.81s.19 3.428-.571 3.809c-.476.286-1.238-.286-2.855-2.952-.762-1.429-1.428-2.953-1.428-2.953s-.095-.285-.285-.476c-.286-.19-.666-.19-.666-.19h-3.807s-.57 0-.761.285c-.19.19 0 .667 0 .667s2.95 6.762 6.376 10.286c3.14 3.238 6.566 2.857 6.566 2.857h1.618s.476 0 .761-.19c.19-.286.19-.572.19-.572s0-2.095.952-2.476c.952-.286 2.284 2 3.521 2.952 1.047.667 1.808.572 1.808.572l3.521-.096s1.903-.095.952-1.524c0-.19-.476-1.142-2.57-3.047z"/></g><defs><clipPath id="afclip0"><path transform="translate(11.667 11.667)" d="M0 0h26.667v26.667H0z"/></clipPath></defs></symbol><symbol viewBox="0 0 50 50" id="Round-Yandex" xmlns="http://www.w3.org/2000/svg"><circle cx="25" cy="25" r="25"/><path d="M28.945 13.333h-3.512c-3.42 0-6.286 2.635-6.286 7.81 0 3.104 1.387 5.362 3.882 6.491l-4.621 8.562c-.185.282 0 .47.277.47h2.126c.185 0 .277-.093.37-.188l4.252-8.467h1.478v8.467c0 .095.093.189.185.189h1.849c.185 0 .277-.094.277-.283V13.616c0-.188-.092-.283-.277-.283zM26.91 26.035h-1.294c-2.033 0-3.974-1.505-3.974-5.269 0-3.857 1.848-5.457 3.697-5.457h1.571v10.726z"/></symbol><symbol viewBox="0 0 16 16" id="arrow-left" xmlns="http://www.w3.org/2000/svg"><g clip-path="url(#ahclip0)"><path fill-rule="evenodd" clip-rule="evenodd" d="M9.318 13.996L4.655 9.33H16V6.661H4.655l4.663-4.667L7.321-.005 0 7.321v1.348l7.32 7.326 1.998-1.999z"/></g><defs><clipPath id="ahclip0"><path d="M0 0h16v16H0z"/></clipPath></defs></symbol><symbol viewBox="0 0 16 16" id="arrow-right" xmlns="http://www.w3.org/2000/svg"><path fill-rule="evenodd" clip-rule="evenodd" d="M6.682 14.006l4.663-4.666H0V6.671h11.345L6.682 2.004l1.997-2L16 7.332V8.68l-7.32 7.326-1.998-1.999z"/></symbol><symbol viewBox="0 0 36 36" id="arrow-top" xmlns="http://www.w3.org/2000/svg"><g clip-path="url(#ajclip0)"><path fill-rule="evenodd" clip-rule="evenodd" d="M31.514 20.966L21.015 10.474V36H15.01V10.474L4.508 20.966.011 16.472 16.494 0h3.034l16.483 16.472-4.497 4.494z"/></g><defs><clipPath id="ajclip0"><path transform="rotate(-90 0 36)" d="M0 36h36v36H0z"/></clipPath></defs></symbol><symbol viewBox="0 0 11 11" id="check" xmlns="http://www.w3.org/2000/svg"><path d="M1.172 6.062L4.56 9.45l5.51-5.51"/></symbol><symbol viewBox="0 0 20 16" id="chevron-down" xmlns="http://www.w3.org/2000/svg"><path fill-rule="evenodd" clip-rule="evenodd" d="M10 10.879l-6.94-6.94L.94 6.061 10 15.12l9.06-9.06-2.12-2.122L10 10.88z"/></symbol><symbol viewBox="0 0 20 16" id="chevron-up" xmlns="http://www.w3.org/2000/svg"><path fill-rule="evenodd" clip-rule="evenodd" d="M10 8.182l-6.94 6.94L.94 13 10 3.94 19.06 13l-2.12 2.121L10 8.182z"/></symbol><symbol viewBox="0 0 20 20" id="close" xmlns="http://www.w3.org/2000/svg"><path d="M10 13.072l-6.792 6.791-3.037-3.037 6.791-6.792L0 3.072 3.072 0l6.962 6.962L16.843.154l3.038 3.037L13.07 10 20 16.928 16.928 20 10 13.072z"/></symbol><symbol viewBox="0 0 16 16" id="dislike" xmlns="http://www.w3.org/2000/svg"><g clip-path="url(#aoclip0)"><path d="M14 10h2V0h-2c-.6 0-1 .4-1 1v8c0 .6.4 1 1 1zm.5-2c.3 0 .5.2.5.5s-.2.5-.5.5-.5-.2-.5-.5.2-.5.5-.5zM1 9h4v6c0 .6.4 1 1 1h1c.6 0 1-.4 1-1v-1c0-2.1 1.2-3.8 3-4.6 0 0 1-.4 1-1.4V1h-1c-1 0-2-1-3-1H2c-.6 0-.9.3-1 1L0 8c-.1.6.4 1 1 1z"/></g><defs><clipPath id="aoclip0"><path transform="rotate(-180 8 8)" d="M0 0h16v16H0z"/></clipPath></defs></symbol><symbol viewBox="0 0 24 24" id="enter" xmlns="http://www.w3.org/2000/svg"><path d="M24 24V0H0v7.5h3V3h18v18H3v-4.5H0V24h24z"/><path d="M9 6l6 6-6 6V6zm0 7.5v-3H0v3h9z"/></symbol><symbol viewBox="0 0 16 16" id="eye" xmlns="http://www.w3.org/2000/svg"><path d="M8 2C3.58 2 0 8 0 8s3.58 6 8 6 8-6 8-6-3.58-6-8-6zm0 10c-2.21 0-4-1.79-4-4s1.79-4 4-4 4 1.79 4 4-1.79 4-4 4z"/><path d="M8 10a2 2 0 100-4 2 2 0 000 4z"/></symbol><symbol viewBox="0 0 8 16" id="fb" xmlns="http://www.w3.org/2000/svg"><path d="M1.829 16h3.314V8h2.571L8 5.2H5.143V3.429c0-.629.286-.686.571-.686h2.229V0H5.314C2.343 0 1.83 2.057 1.83 3.371V5.2H0V8h1.829v8z"/></symbol><symbol viewBox="0 0 16 15" id="img" xmlns="http://www.w3.org/2000/svg"><path d="M15 0H1C.4 0 0 .4 0 1v13c0 .6.4 1 1 1h14c.6 0 1-.4 1-1V1c0-.6-.4-1-1-1zm-1 2v7.2l-3.6-2.9L6 10 4 8l-2 2V2h12z"/></symbol><symbol viewBox="0 0 16 16" id="lessons" xmlns="http://www.w3.org/2000/svg"><path d="M5 5H3v2h2V5zm0 3H3v2h2V8zm0 3H3v2h2v-2zm8-6H6v2h7V5zm0 3H6v2h7V8zm0 3H6v2h7v-2z"/><path d="M0 0v16h16V0H0zm6 1h1v1H6V1zM4 1h1v1H4V1zM2 1h1v1H2V1zm12 13H2V3h12v11z"/></symbol><symbol viewBox="0 0 16 16" id="like" xmlns="http://www.w3.org/2000/svg"><g clip-path="url(#auclip0)"><path d="M2 6H0v10h2c.6 0 1-.4 1-1V7c0-.6-.4-1-1-1zm-.5 2c-.3 0-.5-.2-.5-.5s.2-.5.5-.5.5.2.5.5-.2.5-.5.5zM15 7h-4V1c0-.6-.4-1-1-1H9c-.6 0-1 .4-1 1v1c0 2.1-1.2 3.8-3 4.6C5 6.6 4 7 4 8v7h1c1 0 2 1 3 1h6c.6 0 .9-.3 1-1l1-7c.1-.6-.4-1-1-1z"/></g><defs><clipPath id="auclip0"><path d="M0 0h16v16H0z"/></clipPath></defs></symbol><symbol viewBox="2 0 12 15" id="loc-unopened" xmlns="http://www.w3.org/2000/svg"><path d="M8 0C4.77 0 2 2.974 2 6.826v6.131C2 14.08 2.9 15 4 15h8c1.1 0 2-.92 2-2.043V6.826C14 3.004 11.23 0 8 0zm.66 11.935H7.41L7 8.848h2l-.34 3.087zM4 6.826C4 3.76 5.87 2.043 8 2.043s4 1.717 4 4.782H4z"/></symbol><symbol viewBox="0 0 16 16" id="lock-open" xmlns="http://www.w3.org/2000/svg"><path d="M2 7.032v5.976C2 14.104 2.9 15 4 15h8c1.1 0 2-.896 2-1.992V7.032H2zm6.66 4.98H7.41L7 9.028h2l-.34 2.984zM14 7.032h-2v-.996c0-2.231-1.79-4.044-4-4.044-1.36 0-2.57.608-3.3 1.663L3.05 2.53C4.15.946 6 0 8 0c3.31 0 6 2.71 6 6.036v.996z"/></symbol><symbol viewBox="0 0 16 16" id="magnifier" xmlns="http://www.w3.org/2000/svg"><path d="M14.96 13.04L11.22 9.3c.49-.82.78-1.78.78-2.8C12 3.47 9.53 1 6.5 1A5.51 5.51 0 001 6.5C1 9.53 3.47 12 6.5 12c.92 0 1.78-.23 2.55-.63l3.79 3.79 2.12-2.12zM2.5 6.5c0-2.21 1.79-4 4-4s4 1.79 4 4-1.79 4-4 4-4-1.79-4-4z"/></symbol><symbol viewBox="0 0 16 12" id="open" xmlns="http://www.w3.org/2000/svg"><path d="M8 1.5C3.58 1.5 0 6 0 6s3.58 4.5 8 4.5S16 6 16 6s-3.58-4.5-8-4.5zM8 9C5.79 9 4 7.657 4 6s1.79-3 4-3 4 1.343 4 3-1.79 3-4 3z"/><path d="M8 7.5c1.105 0 2-.672 2-1.5s-.895-1.5-2-1.5S6 5.172 6 6s.895 1.5 2 1.5z"/></symbol><symbol viewBox="0 0 7 16" id="phone" xmlns="http://www.w3.org/2000/svg"><path d="M4.3 5H6c.6 0 1-.4 1-1V1c0-.6-.4-1-1-1H3C1.7 0 1.3 1 1.3 1 .5 3.2 0 5.5 0 8s.5 4.8 1.3 7c0 0 .4 1 1.7 1h3c.6 0 1-.4 1-1v-3c0-.6-.4-1-1-1H4.3C4.1 10 4 9 4 8s.1-2 .3-3z"/></symbol><symbol viewBox="0 0 16 16" id="share" xmlns="http://www.w3.org/2000/svg"><path d="M13.5 11c-.7 0-1.3.3-1.8.8L5 8.4v-.8l6.7-3.4c.5.5 1.1.8 1.8.8C14.9 5 16 3.9 16 2.5S14.9 0 13.5 0 11 1.1 11 2.5v.4L4.3 6.3c-.5-.5-1.1-.8-1.8-.8C1.1 5.5 0 6.6 0 8s1.1 2.5 2.5 2.5c.7 0 1.3-.3 1.8-.8l6.7 3.4v.4c0 1.4 1.1 2.5 2.5 2.5s2.5-1.1 2.5-2.5-1.1-2.5-2.5-2.5z"/></symbol><symbol viewBox="0 0 16 16" id="smile" xmlns="http://www.w3.org/2000/svg"><path d="M8 0C3.6 0 0 3.6 0 8s3.6 8 8 8 8-3.6 8-8-3.6-8-8-8zm2 5c.6 0 1 .4 1 1s-.4 1-1 1-1-.4-1-1 .4-1 1-1zM6 5c.6 0 1 .4 1 1s-.4 1-1 1-1-.4-1-1 .4-1 1-1zm2 8c-1.9 0-3.4-1.3-3.9-3h7.7c-.4 1.7-1.9 3-3.8 3z"/></symbol><symbol viewBox="0 0 16 14" id="tg" xmlns="http://www.w3.org/2000/svg"><path d="M15.476 0c-.052 0-.104 0-.156.052L.31 5.745c-.414.155-.414.777 0 .932l3.468 1.19L5.9 12.06c.052.051.104.103.207.103.052 0 .104 0 .156-.052l1.967-1.656L6.056 8.8l.155 2.174-1.553-3.261 8.385-5.02L6.056 8.8l5.434 4.14a.964.964 0 00.57.208c.414 0 .828-.26.983-.725l2.95-11.75C16.045.26 15.786 0 15.476 0z"/></symbol><symbol viewBox="0 0 511.999 511.999" id="tick" xmlns="http://www.w3.org/2000/svg"><path d="M506.231 75.508c-7.689-7.69-20.158-7.69-27.849 0l-319.21 319.211L33.617 269.163c-7.689-7.691-20.158-7.691-27.849 0-7.69 7.69-7.69 20.158 0 27.849l139.481 139.481c7.687 7.687 20.16 7.689 27.849 0l333.133-333.136c7.69-7.691 7.69-20.159 0-27.849z"/></symbol><symbol viewBox="0 0 16 16" id="time" xmlns="http://www.w3.org/2000/svg"><path d="M9 7V5c0-.6-.4-1-1-1s-1 .4-1 1v4h4c.6 0 1-.4 1-1s-.4-1-1-1H9z"/><path d="M8 16c-4.4 0-8-3.6-8-8s3.6-8 8-8 8 3.6 8 8-3.6 8-8 8zM8 2C4.7 2 2 4.7 2 8s2.7 6 6 6 6-2.7 6-6-2.7-6-6-6z"/></symbol><symbol viewBox="0 0 10 5" id="triangle" xmlns="http://www.w3.org/2000/svg"><path fill-rule="evenodd" clip-rule="evenodd" d="M5 5l5-5H0l5 5z"/></symbol><symbol viewBox="0 0 16 14" id="tw" xmlns="http://www.w3.org/2000/svg"><path d="M15.543.229c-.629.4-1.314.685-2.057.857C12.857.4 12 0 11.086 0 9.257 0 7.829 1.543 7.829 3.486c0 .285.057.514.057.8C5.143 4.114 2.743 2.743 1.143.629A3.547 3.547 0 00.686 2.4c0 1.2.571 2.286 1.485 2.857-.514 0-1.028-.171-1.485-.457v.057c0 1.657 1.143 3.086 2.628 3.372-.285.057-.571.114-.857.114-.228 0-.4 0-.628-.057.4 1.428 1.6 2.4 3.028 2.457-1.143.914-2.514 1.486-4.057 1.486-.286 0-.514 0-.8-.058a9.01 9.01 0 005.029 1.543c6.057 0 9.314-5.257 9.314-9.828v-.457c.628-.515 1.2-1.086 1.657-1.772-.571.286-1.2.457-1.886.572.686-.515 1.2-1.143 1.429-2z"/></symbol><symbol viewBox="0 0 16 10" id="vk" xmlns="http://www.w3.org/2000/svg"><path d="M14.274 6.514c-1.313-1.2-1.141-1.028.457-3.143.97-1.314 1.37-2.057 1.256-2.4-.114-.342-.856-.228-.856-.228h-2.398s-.171 0-.286.057c-.114.057-.228.229-.228.229s-.4.971-.914 1.828C10.22 4.686 9.821 4.743 9.65 4.63c-.4-.286-.285-1.029-.285-1.6 0-1.715.285-2.629-.514-2.8C8.565.17 8.393 0 7.822 0h-.799C6.452 0 5.995.171 5.71.343c-.286.114-.514.514-.4.514.171 0 .514.114.685.4.286.286.286 1.086.286 1.086s.114 2.057-.343 2.286c-.285.171-.742-.172-1.713-1.772C3.768 2 3.37 1.086 3.37 1.086S3.312.914 3.197.8c-.17-.114-.4-.114-.4-.114H.515S.17.686.057.857c-.114.114 0 .4 0 .4s1.77 4.057 3.826 6.172c1.884 1.942 3.94 1.714 3.94 1.714h.97s.286 0 .457-.114c.114-.172.114-.343.114-.343s0-1.257.571-1.486c.571-.171 1.37 1.2 2.113 1.771.628.4 1.085.343 1.085.343l2.112-.057s1.142-.057.571-.914c0-.114-.285-.686-1.542-1.829z"/></symbol><symbol viewBox="0 0 16 12" id="yt" xmlns="http://www.w3.org/2000/svg"><path d="M15.829 2.457s-.172-1.143-.629-1.6C14.571.23 13.886.23 13.6.171 11.371 0 8 0 8 0S4.629 0 2.4.171C2.114.23 1.429.23.8.857c-.457.514-.629 1.6-.629 1.6S0 3.771 0 5.086v1.257C0 7.657.171 8.97.171 8.97s.172 1.143.629 1.6c.629.629 1.429.629 1.771.686C3.83 11.371 8 11.43 8 11.43s3.371 0 5.6-.172c.286-.057.971-.057 1.6-.686.457-.514.629-1.6.629-1.6S16 7.657 16 6.343V5.086c0-1.315-.171-2.629-.171-2.629zM6.343 7.83V3.257l4.343 2.286-4.343 2.286z"/></symbol></svg>