<svg width="16" height="16" viewBox="0 0 16 16" fill="none" xmlns="http://www.w3.org/2000/svg">
<g clip-path="url(#clip0)">
<path d="M2 6H0V16H2C2.6 16 3 15.6 3 15V7C3 6.4 2.6 6 2 6ZM1.5 8C1.2 8 1 7.8 1 7.5C1 7.2 1.2 7 1.5 7C1.8 7 2 7.2 2 7.5C2 7.8 1.8 8 1.5 8Z" fill="#95A3B1"/>
<path d="M15 7H11V1C11 0.4 10.6 0 10 0H9C8.4 0 8 0.4 8 1V2C8 4.1 6.8 5.8 5 6.6C5 6.6 4 7 4 8V15H5C6 15 7 16 8 16H14C14.6 16 14.9 15.7 15 15L16 8C16.1 7.4 15.6 7 15 7Z" fill="#95A3B1"/>
</g>
<defs>
<clipPath id="clip0">
<rect width="16" height="16" fill="white"/>
</clipPath>
</defs>
</svg>
