<svg width="16" height="16" viewBox="0 0 16 16" fill="none" xmlns="http://www.w3.org/2000/svg">
<path d="M2 7.03198V13.0081C2 14.1037 2.9 15.0001 4 15.0001H12C13.1 15.0001 14 14.1037 14 13.0081V7.03198H2ZM8.66 12.0121H7.41L7 9.028H8H9L8.66 12.0121Z" fill="#303030"/>
<path d="M13.9998 7.03187H11.9998V6.03586C11.9998 3.80478 10.2098 1.99203 7.9998 1.99203C6.6398 1.99203 5.4298 2.5996 4.6998 3.65538L3.0498 2.52988C4.1498 0.946215 5.9998 0 7.9998 0C11.3098 0 13.9998 2.70916 13.9998 6.03586V7.03187Z" fill="#303030"/>
</svg>
