<svg width="16" height="16" viewBox="0 0 16 16" fill="none" xmlns="http://www.w3.org/2000/svg">
<rect x="4.25" y="7.125" width="7.375" height="2.125" fill="#303030"/>
<rect x="6.875" y="11.875" width="7.375" height="2.125" transform="rotate(-90 6.875 11.875)" fill="#303030"/>
<path fill-rule="evenodd" clip-rule="evenodd" d="M8 13.875C11.2447 13.875 13.875 11.2447 13.875 8C13.875 4.75533 11.2447 2.125 8 2.125C4.75533 2.125 2.125 4.75533 2.125 8C2.125 11.2447 4.75533 13.875 8 13.875ZM8 16C12.4183 16 16 12.4183 16 8C16 3.58172 12.4183 0 8 0C3.58172 0 0 3.58172 0 8C0 12.4183 3.58172 16 8 16Z" fill="#303030"/>
</svg>
