<svg width="50" height="50" viewBox="0 0 50 50" fill="none" xmlns="http://www.w3.org/2000/svg">
<circle cx="25" cy="25" r="25" fill="#FF5A49"/>
<path d="M36.6666 23.7037C36.6666 25.0865 36.4064 26.2963 35.9727 27.4198C35.539 28.5432 34.9318 29.4074 34.1512 30.0988C33.3705 30.7037 32.4163 31.0494 31.3754 31.0494C30.6815 31.0494 30.0743 30.8766 29.4671 30.5309C28.9467 30.1852 28.513 29.7531 28.2528 29.2346H28.0793C27.0384 30.4445 25.7373 31.0494 24.1759 31.0494C22.5279 31.0494 21.14 30.5309 20.1859 29.4939C19.2317 28.4568 18.7113 27.247 18.7113 25.4321C18.7113 23.4445 19.3184 21.8025 20.6196 20.5926C21.9207 19.3828 23.5688 18.7778 25.6505 18.7778C26.4312 18.7778 27.3854 18.8642 28.3395 19.0371C29.2937 19.2099 30.1611 19.3828 30.7683 19.642L30.4213 26.642C30.4213 27.9383 30.7683 28.6297 31.5489 28.6297C32.1561 28.6297 32.6766 28.1976 33.0235 27.3334C33.3705 26.4692 33.544 25.2593 33.544 23.8766C33.544 22.321 33.197 21.0247 32.5898 19.8149C31.9826 18.605 31.0285 17.7408 29.9008 17.1358C28.7732 16.5309 27.3854 16.1852 25.9108 16.1852C24.0025 16.1852 22.2676 16.6173 20.8798 17.3951C19.4919 18 18.3643 19.1235 17.6704 20.5926C16.9764 22.0618 16.5427 23.7902 16.5427 25.7778C16.5427 28.3704 17.2367 30.4445 18.6245 31.8272C20.0124 33.2099 22.0942 33.9013 24.6964 33.9013C25.7373 33.9013 26.7782 33.8149 27.9925 33.5556C29.2069 33.2963 30.4213 33.0371 31.5489 32.605V35.3704C29.4671 36.2346 27.2119 36.6667 24.7831 36.6667C21.14 36.6667 18.3643 35.7161 16.2825 33.8149C14.3742 31.9136 13.3333 29.2346 13.3333 25.8642C13.3333 23.5309 13.8538 21.3704 14.8947 19.4692C15.9355 17.5679 17.4101 16.0124 19.3184 14.9753C21.2267 13.9383 23.3953 13.3334 25.9108 13.3334C27.9925 13.3334 29.9008 13.7655 31.5489 14.6297C33.197 15.4939 34.4981 16.7037 35.3655 18.2593C36.2329 19.8149 36.6666 21.6297 36.6666 23.7037ZM22.0074 25.5186C22.0074 27.5062 22.7881 28.5433 24.4362 28.5433C25.3036 28.5433 25.9108 28.284 26.4312 27.6791C26.8649 27.0741 27.1251 26.1235 27.2119 24.7408L27.3854 21.6297C26.8649 21.5433 26.3445 21.4568 25.7373 21.4568C24.5229 21.4568 23.6555 21.8025 22.9616 22.5803C22.3544 23.1852 22.0074 24.2223 22.0074 25.5186Z" fill="white"/>
</svg>
