<svg width="50" height="50" viewBox="0 0 50 50" fill="none" xmlns="http://www.w3.org/2000/svg">
<circle cx="25" cy="25" r="25" fill="#FF3827"/>
<path d="M28.9449 13.3334H25.4325C22.0125 13.3334 19.1472 15.9678 19.1472 21.1425C19.1472 24.2474 20.5336 26.5054 23.0293 27.6344L18.4077 36.1963C18.2229 36.4785 18.4077 36.6667 18.685 36.6667H20.8109C20.9958 36.6667 21.0882 36.5726 21.1807 36.4785L25.4325 28.0108H26.9114V36.4785C26.9114 36.5726 27.0038 36.6667 27.0962 36.6667H28.9449C29.1297 36.6667 29.2222 36.5726 29.2222 36.3844V13.6156C29.2222 13.4275 29.1297 13.3334 28.9449 13.3334ZM26.9114 26.035H25.6174C23.5839 26.035 21.6428 24.5296 21.6428 20.7662C21.6428 16.9086 23.4914 15.3092 25.3401 15.3092H26.9114V26.035Z" fill="white"/>
</svg>
