<svg width="50" height="50" viewBox="0 0 50 50" fill="none" xmlns="http://www.w3.org/2000/svg">
<circle cx="25" cy="25" r="25" fill="#4F7BBC"/>
<g clip-path="url(#clip0)">
<path d="M35.4574 27.5238C33.2686 25.5238 33.5541 25.8095 36.2187 22.2857C37.8364 20.0953 38.5026 18.8572 38.3123 18.2857C38.1219 17.7143 36.8848 17.9048 36.8848 17.9048H32.888C32.888 17.9048 32.6025 17.9048 32.4122 18C32.2218 18.0953 32.0315 18.381 32.0315 18.381C32.0315 18.381 31.3654 20 30.5089 21.4286C28.7008 24.4762 28.0347 24.5714 27.7492 24.381C27.083 23.9048 27.2734 22.6667 27.2734 21.7143C27.2734 18.8572 27.7492 17.3334 26.4169 17.0476C25.9411 16.9524 25.6556 16.6667 24.704 16.6667H23.3717C22.42 16.6667 21.6587 16.9524 21.1829 17.2381C20.7071 17.4286 20.3265 18.0953 20.5168 18.0953C20.8023 18.0953 21.3732 18.2857 21.6587 18.7619C22.1346 19.2381 22.1346 20.5714 22.1346 20.5714C22.1346 20.5714 22.3249 24 21.5636 24.381C21.0878 24.6667 20.3265 24.0953 18.7087 21.4286C17.9474 20 17.2812 18.4762 17.2812 18.4762C17.2812 18.4762 17.1861 18.1905 16.9957 18C16.7103 17.8095 16.3296 17.8095 16.3296 17.8095H12.5231C12.5231 17.8095 11.9521 17.8095 11.7618 18.0953C11.5715 18.2857 11.7618 18.7619 11.7618 18.7619C11.7618 18.7619 14.7118 25.5238 18.1377 29.0476C21.2781 32.2857 24.704 31.9048 24.704 31.9048H26.3217C26.3217 31.9048 26.7975 31.9048 27.083 31.7143C27.2734 31.4286 27.2734 31.1429 27.2734 31.1429C27.2734 31.1429 27.2734 29.0476 28.225 28.6667C29.1766 28.381 30.5089 30.6667 31.746 31.6191C32.7928 32.2857 33.5541 32.1905 33.5541 32.1905L37.0751 32.0953C37.0751 32.0953 38.9784 32 38.0268 30.5714C38.0268 30.381 37.551 29.4286 35.4574 27.5238Z" fill="white"/>
</g>
<defs>
<clipPath id="clip0">
<rect width="26.6667" height="26.6667" fill="white" transform="translate(11.6667 11.6667)"/>
</clipPath>
</defs>
</svg>
