<svg width="16" height="16" viewBox="0 0 16 16" fill="none" xmlns="http://www.w3.org/2000/svg">
<path d="M13.5 11C12.8 11 12.2 11.3 11.7 11.8L5 8.4C5 8.3 5 8.1 5 8C5 7.9 5 7.7 5 7.6L11.7 4.2C12.2 4.7 12.8 5 13.5 5C14.9 5 16 3.9 16 2.5C16 1.1 14.9 0 13.5 0C12.1 0 11 1.1 11 2.5C11 2.6 11 2.8 11 2.9L4.3 6.3C3.8 5.8 3.2 5.5 2.5 5.5C1.1 5.5 0 6.6 0 8C0 9.4 1.1 10.5 2.5 10.5C3.2 10.5 3.8 10.2 4.3 9.7L11 13.1C11 13.2 11 13.4 11 13.5C11 14.9 12.1 16 13.5 16C14.9 16 16 14.9 16 13.5C16 12.1 14.9 11 13.5 11Z" fill="#FFB000"/>
</svg>
