<svg width="16" height="14" viewBox="0 0 16 14" fill="none" xmlns="http://www.w3.org/2000/svg">
<path d="M15.4758 0C15.424 0 15.3723 0 15.3205 0.0517585L0.310551 5.74519C-0.103517 5.90047 -0.103517 6.52157 0.310551 6.67684L3.77837 7.86729L5.90047 12.0597C5.95223 12.1115 6.00398 12.1632 6.1075 12.1632C6.15926 12.1632 6.21102 12.1632 6.26278 12.1115L8.2296 10.4552L6.05574 8.79894L6.21102 10.9728L4.65826 7.71201L13.0431 2.69144L6.05574 8.79894L11.4904 12.9396C11.6974 13.0949 11.9045 13.1467 12.0597 13.1467C12.4738 13.1467 12.8879 12.8879 13.0431 12.422L15.9934 0.67286C16.0451 0.258792 15.7863 0 15.4758 0Z" fill="white"/>
</svg>
