<svg width="16" height="14" viewBox="0 0 16 14" fill="none" xmlns="http://www.w3.org/2000/svg">
<path d="M15.5429 0.228571C14.9143 0.628571 14.2286 0.914286 13.4857 1.08571C12.8571 0.4 12 0 11.0857 0C9.25714 0 7.82857 1.54286 7.82857 3.48571C7.82857 3.77143 7.88571 4 7.88571 4.28571C5.14286 4.11429 2.74286 2.74286 1.14286 0.628571C0.857143 1.14286 0.685714 1.71429 0.685714 2.4C0.685714 3.6 1.25714 4.68571 2.17143 5.25714C1.65714 5.25714 1.14286 5.08571 0.685714 4.8V4.85714C0.685714 6.51429 1.82857 7.94286 3.31429 8.22857C3.02857 8.28571 2.74286 8.34286 2.45714 8.34286C2.22857 8.34286 2.05714 8.34286 1.82857 8.28572C2.22857 9.71429 3.42857 10.6857 4.85714 10.7429C3.71429 11.6571 2.34286 12.2286 0.8 12.2286C0.514286 12.2286 0.285714 12.2286 0 12.1714C1.42857 13.1429 3.2 13.7143 5.02857 13.7143C11.0857 13.7143 14.3429 8.45714 14.3429 3.88571C14.3429 3.71429 14.3429 3.6 14.3429 3.42857C14.9714 2.91429 15.5429 2.34286 16 1.65714C15.4286 1.94286 14.8 2.11429 14.1143 2.22857C14.8 1.71429 15.3143 1.08571 15.5429 0.228571Z" fill="white"/>
</svg>
