<svg width="16" height="10" viewBox="0 0 16 10" fill="none" xmlns="http://www.w3.org/2000/svg">
<path d="M14.2744 6.51429C12.9612 5.31429 13.1325 5.48571 14.7312 3.37143C15.7019 2.05714 16.1015 1.31429 15.9873 0.971429C15.8732 0.628571 15.1309 0.742857 15.1309 0.742857H12.7328C12.7328 0.742857 12.5615 0.742857 12.4473 0.8C12.3331 0.857143 12.2189 1.02857 12.2189 1.02857C12.2189 1.02857 11.8192 2 11.3053 2.85714C10.2205 4.68571 9.82078 4.74286 9.64949 4.62857C9.2498 4.34286 9.364 3.6 9.364 3.02857C9.364 1.31429 9.64949 0.4 8.85012 0.228571C8.56463 0.171429 8.39334 0 7.82236 0H7.02299C6.45201 0 5.99523 0.171429 5.70974 0.342857C5.42425 0.457143 5.19586 0.857143 5.31005 0.857143C5.48135 0.857143 5.82394 0.971429 5.99523 1.25714C6.28072 1.54286 6.28072 2.34286 6.28072 2.34286C6.28072 2.34286 6.39491 4.4 5.93813 4.62857C5.65264 4.8 5.19586 4.45714 4.2252 2.85714C3.76841 2 3.36873 1.08571 3.36873 1.08571C3.36873 1.08571 3.31163 0.914286 3.19744 0.8C3.02614 0.685714 2.79775 0.685714 2.79775 0.685714H0.513838C0.513838 0.685714 0.171251 0.685714 0.0570555 0.857143C-0.0571401 0.971429 0.0570555 1.25714 0.0570555 1.25714C0.0570555 1.25714 1.82709 5.31429 3.88261 7.42857C5.76684 9.37143 7.82236 9.14286 7.82236 9.14286H8.79302C8.79302 9.14286 9.07851 9.14286 9.2498 9.02857C9.364 8.85714 9.364 8.68571 9.364 8.68571C9.364 8.68571 9.364 7.42857 9.93498 7.2C10.506 7.02857 11.3053 8.4 12.0476 8.97143C12.6757 9.37143 13.1325 9.31428 13.1325 9.31428L15.2451 9.25714C15.2451 9.25714 16.387 9.2 15.8161 8.34286C15.8161 8.22857 15.5306 7.65714 14.2744 6.51429Z" fill="white"/>
</svg>
