<svg width="16" height="12" viewBox="0 0 16 12" fill="none" xmlns="http://www.w3.org/2000/svg">
<path d="M15.8286 2.45714C15.8286 2.45714 15.6571 1.31429 15.2 0.857143C14.5714 0.228571 13.8857 0.228571 13.6 0.171429C11.3714 0 8 0 8 0C8 0 4.62857 0 2.4 0.171429C2.11429 0.228571 1.42857 0.228571 0.8 0.857143C0.342857 1.37143 0.171429 2.45714 0.171429 2.45714C0.171429 2.45714 0 3.77143 0 5.08571V6.34286C0 7.65714 0.171429 8.97143 0.171429 8.97143C0.171429 8.97143 0.342857 10.1143 0.8 10.5714C1.42857 11.2 2.22857 11.2 2.57143 11.2571C3.82857 11.3714 8 11.4286 8 11.4286C8 11.4286 11.3714 11.4286 13.6 11.2571C13.8857 11.2 14.5714 11.2 15.2 10.5714C15.6571 10.0571 15.8286 8.97143 15.8286 8.97143C15.8286 8.97143 16 7.65714 16 6.34286V5.08571C16 3.77143 15.8286 2.45714 15.8286 2.45714ZM6.34286 7.82857V3.25714L10.6857 5.54286L6.34286 7.82857Z" fill="white"/>
</svg>
