<svg width="531" height="131" viewBox="0 0 531 131" fill="none" xmlns="http://www.w3.org/2000/svg">
<path d="M168.008 11.4604C176.004 11.4604 182.971 13.0269 188.907 16.16C194.842 19.293 199.459 23.9102 202.757 30.0114C206.055 36.1126 207.703 43.4918 207.703 52.149V99.5159H187.67V78.7387H148.098V99.5159H128.312V52.149C128.312 43.4918 129.96 36.1126 133.258 30.0114C136.556 23.9102 141.173 19.293 147.108 16.16C153.044 13.0269 160.011 11.4604 168.008 11.4604ZM187.67 62.6612V50.2939C187.67 43.1208 185.897 37.7204 182.352 34.0926C178.807 30.3824 173.985 28.5273 167.884 28.5273C161.701 28.5273 156.837 30.3824 153.292 34.0926C149.829 37.7204 148.098 43.1208 148.098 50.2939V62.6612H187.67Z" fill="#303030"/>
<path d="M326.284 11.4604C336.507 11.4604 344.462 14.4698 350.151 20.4885C355.839 26.4249 358.684 35.0408 358.684 46.3363V99.5159H338.65V46.9547C338.65 40.8534 337.043 36.2775 333.827 33.2269C330.695 30.0939 326.531 28.5273 321.337 28.5273C315.649 28.5273 311.115 30.1763 307.734 33.4743C304.354 36.6898 302.664 41.5955 302.664 48.1914V99.5159H282.631V46.9547C282.631 40.8534 281.147 36.2775 278.179 33.2269C275.211 30.0939 271.171 28.5273 266.06 28.5273C260.454 28.5273 255.961 30.1763 252.581 33.4743C249.201 36.6898 247.51 41.5955 247.51 48.1914V99.5159H227.477V12.9445H246.892V23.5804C249.53 19.7053 253.034 16.7371 257.403 14.6759C261.773 12.5322 266.802 11.4604 272.49 11.4604C278.426 11.4604 283.62 12.5734 288.072 14.7996C292.524 16.9432 295.945 20.0763 298.336 24.1988C301.304 20.0763 305.179 16.9432 309.96 14.7996C314.824 12.5734 320.266 11.4604 326.284 11.4604Z" fill="#303030"/>
<path d="M406.876 101C400.033 101 393.396 100.093 386.966 98.2792C380.618 96.3828 375.506 93.9506 371.632 90.9824L378.433 75.8943C382.143 78.6151 386.554 80.8 391.665 82.449C396.776 84.0979 401.888 84.9224 406.999 84.9224C412.688 84.9224 416.892 84.0979 419.613 82.449C422.334 80.7175 423.694 78.4502 423.694 75.6469C423.694 73.5857 422.869 71.8955 421.221 70.5763C419.654 69.1747 417.593 68.0616 415.037 67.2371C412.564 66.4126 409.184 65.5057 404.897 64.5163C398.302 62.9498 392.902 61.3832 388.697 59.8167C384.493 58.2502 380.865 55.7355 377.815 52.2726C374.847 48.8098 373.363 44.1926 373.363 38.4212C373.363 33.3918 374.723 28.8571 377.444 24.8171C380.164 20.6947 384.245 17.4379 389.686 15.0469C395.21 12.6559 401.929 11.4604 409.844 11.4604C415.367 11.4604 420.767 12.12 426.043 13.4392C431.32 14.7583 435.936 16.6547 439.894 19.1281L433.711 34.34C425.714 29.8053 417.717 27.5379 409.72 27.5379C404.114 27.5379 399.951 28.4449 397.23 30.2588C394.592 32.0726 393.273 34.4636 393.273 37.4318C393.273 40.4 394.798 42.6261 397.848 44.1102C400.981 45.5118 405.721 46.9134 412.069 48.3151C418.665 49.8816 424.065 51.4481 428.269 53.0147C432.474 54.5812 436.06 57.0547 439.028 60.4351C442.078 63.8155 443.604 68.3914 443.604 74.1628C443.604 79.1098 442.202 83.6445 439.399 87.7669C436.678 91.8069 432.556 95.0224 427.033 97.4134C421.509 99.8045 414.79 101 406.876 101Z" fill="#303030"/>
<path d="M531 0H459.378V71.6275H531V0Z" fill="#FBBF3A"/>
<path d="M500.043 32.0519C503.835 32.6702 506.742 34.0925 508.761 36.3186C510.781 38.5035 511.791 41.2243 511.791 44.4811C511.791 46.9958 511.132 49.3249 509.813 51.4686C508.493 53.5711 506.474 55.2613 503.753 56.5392C501.074 57.8172 497.776 58.4562 493.86 58.4562C490.81 58.4562 487.8 58.0645 484.833 57.2813C481.906 56.4568 479.412 55.3025 477.351 53.8184L481.246 46.1507C482.895 47.3874 484.791 48.3562 486.935 49.057C489.12 49.7166 491.345 50.0464 493.613 50.0464C496.127 50.0464 498.106 49.5723 499.548 48.6241C500.991 47.6347 501.713 46.2537 501.713 44.4811C501.713 40.9358 499.013 39.1631 493.613 39.1631H489.037V32.5466L497.941 22.4672H479.515V14.4284H509.813V20.9213L500.043 32.0519Z" fill="#303030"/>
<g clip-path="url(#clip0)">
<path d="M101.27 0H1V100.279H101.27V0Z" fill="#FBBF3A"/>
<path fill-rule="evenodd" clip-rule="evenodd" d="M101.27 0H98.5475L19.1675 14.1333L15.6831 34.3122L67.5443 26.4838L25.9257 57.7813L35.909 71.9147L75.5665 38.348L60.2999 100.279H90.2335L101.27 15.0086V0Z" fill="white"/>
<path fill-rule="evenodd" clip-rule="evenodd" d="M6.25094 83.536L24.8399 44.4586L11.826 46.3225L1 70.5048V100.279H45.0496L48.9878 83.536H6.25094Z" fill="#231F20"/>
</g>
<path d="M8.415 124.75H3.54L2.61 127H0.12L4.8 116.5H7.2L11.895 127H9.345L8.415 124.75ZM7.65 122.905L5.985 118.885L4.32 122.905H7.65ZM20.5624 121.525C21.2024 121.715 21.6924 122.025 22.0324 122.455C22.3724 122.885 22.5424 123.415 22.5424 124.045C22.5424 124.975 22.1874 125.7 21.4774 126.22C20.7774 126.74 19.7724 127 18.4624 127H13.2874V116.5H18.1774C19.3974 116.5 20.3474 116.735 21.0274 117.205C21.7074 117.675 22.0474 118.345 22.0474 119.215C22.0474 119.735 21.9174 120.195 21.6574 120.595C21.3974 120.985 21.0324 121.295 20.5624 121.525ZM15.7024 120.85H17.9674C18.4974 120.85 18.8974 120.745 19.1674 120.535C19.4374 120.315 19.5724 119.995 19.5724 119.575C19.5724 119.165 19.4324 118.85 19.1524 118.63C18.8824 118.41 18.4874 118.3 17.9674 118.3H15.7024V120.85ZM18.3724 125.2C19.5124 125.2 20.0824 124.75 20.0824 123.85C20.0824 122.98 19.5124 122.545 18.3724 122.545H15.7024V125.2H18.3724ZM32.3427 118.48H28.9827V127H26.5827V118.48H23.2377V116.5H32.3427V118.48ZM38.732 127.18C37.642 127.18 36.657 126.945 35.777 126.475C34.907 126.005 34.222 125.36 33.722 124.54C33.232 123.71 32.987 122.78 32.987 121.75C32.987 120.72 33.232 119.795 33.722 118.975C34.222 118.145 34.907 117.495 35.777 117.025C36.657 116.555 37.642 116.32 38.732 116.32C39.822 116.32 40.802 116.555 41.672 117.025C42.542 117.495 43.227 118.145 43.727 118.975C44.227 119.795 44.477 120.72 44.477 121.75C44.477 122.78 44.227 123.71 43.727 124.54C43.227 125.36 42.542 126.005 41.672 126.475C40.802 126.945 39.822 127.18 38.732 127.18ZM38.732 125.11C39.352 125.11 39.912 124.97 40.412 124.69C40.912 124.4 41.302 124 41.582 123.49C41.872 122.98 42.017 122.4 42.017 121.75C42.017 121.1 41.872 120.52 41.582 120.01C41.302 119.5 40.912 119.105 40.412 118.825C39.912 118.535 39.352 118.39 38.732 118.39C38.112 118.39 37.552 118.535 37.052 118.825C36.552 119.105 36.157 119.5 35.867 120.01C35.587 120.52 35.447 121.1 35.447 121.75C35.447 122.4 35.587 122.98 35.867 123.49C36.157 124 36.552 124.4 37.052 124.69C37.552 124.97 38.112 125.11 38.732 125.11ZM50.8939 116.5C51.8239 116.5 52.6289 116.655 53.3089 116.965C53.9989 117.275 54.5289 117.715 54.8989 118.285C55.2689 118.855 55.4539 119.53 55.4539 120.31C55.4539 121.08 55.2689 121.755 54.8989 122.335C54.5289 122.905 53.9989 123.345 53.3089 123.655C52.6289 123.955 51.8239 124.105 50.8939 124.105H48.7789V127H46.3489V116.5H50.8939ZM50.7589 122.125C51.4889 122.125 52.0439 121.97 52.4239 121.66C52.8039 121.34 52.9939 120.89 52.9939 120.31C52.9939 119.72 52.8039 119.27 52.4239 118.96C52.0439 118.64 51.4889 118.48 50.7589 118.48H48.7789V122.125H50.7589ZM57.057 116.5H59.472V123.34L64.482 116.5H66.762V127H64.362V120.175L59.352 127H57.057V116.5ZM75.3463 121.525C75.9563 121.735 76.4313 122.065 76.7713 122.515C77.1213 122.955 77.2963 123.47 77.2963 124.06C77.2963 124.7 77.0863 125.255 76.6663 125.725C76.2463 126.195 75.6763 126.555 74.9563 126.805C74.2463 127.055 73.4663 127.18 72.6163 127.18C71.8963 127.18 71.1763 127.09 70.4563 126.91C69.7463 126.73 69.0713 126.455 68.4313 126.085L69.1813 124.345C69.6413 124.625 70.1463 124.84 70.6963 124.99C71.2563 125.13 71.8013 125.2 72.3313 125.2C73.0513 125.2 73.6463 125.07 74.1163 124.81C74.5963 124.55 74.8363 124.185 74.8363 123.715C74.8363 123.325 74.6713 123.03 74.3413 122.83C74.0213 122.63 73.5813 122.53 73.0213 122.53H70.4563V120.7H72.8413C73.3313 120.7 73.7113 120.6 73.9813 120.4C74.2613 120.2 74.4013 119.925 74.4013 119.575C74.4013 119.165 74.2013 118.845 73.8013 118.615C73.4113 118.385 72.9063 118.27 72.2863 118.27C71.8263 118.27 71.3513 118.335 70.8613 118.465C70.3713 118.585 69.9063 118.77 69.4663 119.02L68.7313 117.13C69.8413 116.56 71.0413 116.275 72.3313 116.275C73.1513 116.275 73.9063 116.395 74.5963 116.635C75.2863 116.875 75.8363 117.225 76.2463 117.685C76.6563 118.145 76.8613 118.68 76.8613 119.29C76.8613 119.79 76.7263 120.235 76.4563 120.625C76.1863 121.015 75.8163 121.315 75.3463 121.525ZM84.23 127.18C83.14 127.18 82.155 126.945 81.275 126.475C80.405 126.005 79.72 125.36 79.22 124.54C78.73 123.71 78.485 122.78 78.485 121.75C78.485 120.72 78.73 119.795 79.22 118.975C79.72 118.145 80.405 117.495 81.275 117.025C82.155 116.555 83.14 116.32 84.23 116.32C85.32 116.32 86.3 116.555 87.17 117.025C88.04 117.495 88.725 118.145 89.225 118.975C89.725 119.795 89.975 120.72 89.975 121.75C89.975 122.78 89.725 123.71 89.225 124.54C88.725 125.36 88.04 126.005 87.17 126.475C86.3 126.945 85.32 127.18 84.23 127.18ZM84.23 125.11C84.85 125.11 85.41 124.97 85.91 124.69C86.41 124.4 86.8 124 87.08 123.49C87.37 122.98 87.515 122.4 87.515 121.75C87.515 121.1 87.37 120.52 87.08 120.01C86.8 119.5 86.41 119.105 85.91 118.825C85.41 118.535 84.85 118.39 84.23 118.39C83.61 118.39 83.05 118.535 82.55 118.825C82.05 119.105 81.655 119.5 81.365 120.01C81.085 120.52 80.945 121.1 80.945 121.75C80.945 122.4 81.085 122.98 81.365 123.49C81.655 124 82.05 124.4 82.55 124.69C83.05 124.97 83.61 125.11 84.23 125.11ZM99.122 121.525C99.762 121.715 100.252 122.025 100.592 122.455C100.932 122.885 101.102 123.415 101.102 124.045C101.102 124.975 100.747 125.7 100.037 126.22C99.337 126.74 98.332 127 97.022 127H91.847V116.5H96.737C97.957 116.5 98.907 116.735 99.587 117.205C100.267 117.675 100.607 118.345 100.607 119.215C100.607 119.735 100.477 120.195 100.217 120.595C99.957 120.985 99.592 121.295 99.122 121.525ZM94.262 120.85H96.527C97.057 120.85 97.457 120.745 97.727 120.535C97.997 120.315 98.132 119.995 98.132 119.575C98.132 119.165 97.992 118.85 97.712 118.63C97.442 118.41 97.047 118.3 96.527 118.3H94.262V120.85ZM96.932 125.2C98.072 125.2 98.642 124.75 98.642 123.85C98.642 122.98 98.072 122.545 96.932 122.545H94.262V125.2H96.932ZM110.134 124.75H105.259L104.329 127H101.839L106.519 116.5H108.919L113.614 127H111.064L110.134 124.75ZM109.369 122.905L107.704 118.885L106.039 122.905H109.369ZM124.636 116.5V127H122.206V122.695H117.436V127H115.006V116.5H117.436V120.64H122.206V116.5H124.636ZM136.897 116.5V127H134.467V122.695H129.697V127H127.267V116.5H129.697V120.64H134.467V116.5H136.897ZM144.613 119.95C145.893 119.95 146.873 120.235 147.553 120.805C148.243 121.375 148.588 122.22 148.588 123.34C148.588 124.53 148.208 125.44 147.448 126.07C146.698 126.69 145.638 127 144.268 127H139.528V116.5H141.943V119.95H144.613ZM144.133 125.2C144.763 125.2 145.253 125.045 145.603 124.735C145.963 124.425 146.143 123.975 146.143 123.385C146.143 122.295 145.473 121.75 144.133 121.75H141.943V125.2H144.133ZM149.923 116.5H152.338V127H149.923V116.5ZM154.952 116.5H157.367V123.34L162.377 116.5H164.657V127H162.257V120.175L157.247 127H154.952V116.5ZM159.797 115.825C157.877 115.825 156.907 115.06 156.887 113.53H158.552C158.572 114.26 158.987 114.625 159.797 114.625C160.197 114.625 160.502 114.535 160.712 114.355C160.922 114.165 161.032 113.89 161.042 113.53H162.707C162.697 114.28 162.452 114.85 161.972 115.24C161.492 115.63 160.767 115.825 159.797 115.825ZM181 116.5L176.53 124.81C176.1 125.61 175.58 126.215 174.97 126.625C174.37 127.035 173.715 127.24 173.005 127.24C172.455 127.24 171.885 127.12 171.295 126.88L171.88 125.035C172.3 125.165 172.65 125.23 172.93 125.23C173.23 125.23 173.5 125.16 173.74 125.02C173.98 124.87 174.2 124.64 174.4 124.33L174.49 124.21L170.35 116.5H172.945L175.735 122.14L178.615 116.5H181ZM190.999 116.5V127H188.599V123.22C187.689 123.55 186.844 123.715 186.064 123.715C184.654 123.715 183.574 123.38 182.824 122.71C182.074 122.03 181.699 121.055 181.699 119.785V116.5H184.099V119.515C184.099 120.235 184.289 120.78 184.669 121.15C185.059 121.51 185.619 121.69 186.349 121.69C187.149 121.69 187.899 121.535 188.599 121.225V116.5H190.999ZM201.74 125.05V127H193.61V116.5H201.545V118.45H196.025V120.73H200.9V122.62H196.025V125.05H201.74ZM203.702 116.5H212.177V118.435H206.117V120.595H209.027C210.297 120.595 211.262 120.86 211.922 121.39C212.592 121.92 212.927 122.685 212.927 123.685C212.927 124.735 212.557 125.55 211.817 126.13C211.077 126.71 210.032 127 208.682 127H203.702V116.5ZM208.547 125.2C209.167 125.2 209.642 125.08 209.972 124.84C210.302 124.59 210.467 124.23 210.467 123.76C210.467 122.84 209.827 122.38 208.547 122.38H206.117V125.2H208.547ZM224.407 116.5V127H221.977V122.695H217.207V127H214.777V116.5H217.207V120.64H221.977V116.5H224.407ZM232.122 119.95C233.402 119.95 234.382 120.235 235.062 120.805C235.752 121.375 236.097 122.22 236.097 123.34C236.097 124.53 235.717 125.44 234.957 126.07C234.207 126.69 233.147 127 231.777 127H227.037V116.5H229.452V119.95H232.122ZM231.642 125.2C232.272 125.2 232.762 125.045 233.112 124.735C233.472 124.425 233.652 123.975 233.652 123.385C233.652 122.295 232.982 121.75 231.642 121.75H229.452V125.2H231.642ZM237.432 116.5H239.847V127H237.432V116.5ZM242.462 116.5H244.877V123.34L249.887 116.5H252.167V127H249.767V120.175L244.757 127H242.462V116.5ZM247.307 115.825C245.387 115.825 244.417 115.06 244.397 113.53H246.062C246.082 114.26 246.497 114.625 247.307 114.625C247.707 114.625 248.012 114.535 248.222 114.355C248.432 114.165 248.542 113.89 248.552 113.53H250.217C250.207 114.28 249.962 114.85 249.482 115.24C249.002 115.63 248.277 115.825 247.307 115.825ZM270.04 125.02V129.22H267.805V127H259.03V116.5H261.445V125.02H266.125V116.5H268.54V125.02H270.04ZM279.772 125.05V127H271.642V116.5H279.577V118.45H274.057V120.73H278.932V122.62H274.057V125.05H279.772ZM291.365 116.5V127H288.935V122.695H284.165V127H281.735V116.5H284.165V120.64H288.935V116.5H291.365ZM302.02 118.48H298.66V127H296.26V118.48H292.915V116.5H302.02V118.48ZM308.091 116.5C309.021 116.5 309.826 116.655 310.506 116.965C311.196 117.275 311.726 117.715 312.096 118.285C312.466 118.855 312.651 119.53 312.651 120.31C312.651 121.08 312.466 121.755 312.096 122.335C311.726 122.905 311.196 123.345 310.506 123.655C309.826 123.955 309.021 124.105 308.091 124.105H305.976V127H303.546V116.5H308.091ZM307.956 122.125C308.686 122.125 309.241 121.97 309.621 121.66C310.001 121.34 310.191 120.89 310.191 120.31C310.191 119.72 310.001 119.27 309.621 118.96C309.241 118.64 308.686 118.48 307.956 118.48H305.976V122.125H307.956Z" fill="#303030"/>
<path d="M325.504 124.75H320.629L319.699 127H317.209L321.889 116.5H324.289L328.984 127H326.434L325.504 124.75ZM324.739 122.905L323.074 118.885L321.409 122.905H324.739ZM334.518 127.18C333.018 127.18 331.848 126.765 331.008 125.935C330.178 125.105 329.763 123.92 329.763 122.38V116.5H332.193V122.29C332.193 124.17 332.973 125.11 334.533 125.11C335.293 125.11 335.873 124.885 336.273 124.435C336.673 123.975 336.873 123.26 336.873 122.29V116.5H339.273V122.38C339.273 123.92 338.853 125.105 338.013 125.935C337.183 126.765 336.018 127.18 334.518 127.18ZM343.674 118.48H340.314V116.5H349.464V118.48H346.104V127H343.674V118.48ZM355.71 127.18C354.62 127.18 353.635 126.945 352.755 126.475C351.885 126.005 351.2 125.36 350.7 124.54C350.21 123.71 349.965 122.78 349.965 121.75C349.965 120.72 350.21 119.795 350.7 118.975C351.2 118.145 351.885 117.495 352.755 117.025C353.635 116.555 354.62 116.32 355.71 116.32C356.8 116.32 357.78 116.555 358.65 117.025C359.52 117.495 360.205 118.145 360.705 118.975C361.205 119.795 361.455 120.72 361.455 121.75C361.455 122.78 361.205 123.71 360.705 124.54C360.205 125.36 359.52 126.005 358.65 126.475C357.78 126.945 356.8 127.18 355.71 127.18ZM355.71 125.11C356.33 125.11 356.89 124.97 357.39 124.69C357.89 124.4 358.28 124 358.56 123.49C358.85 122.98 358.995 122.4 358.995 121.75C358.995 121.1 358.85 120.52 358.56 120.01C358.28 119.5 357.89 119.105 357.39 118.825C356.89 118.535 356.33 118.39 355.71 118.39C355.09 118.39 354.53 118.535 354.03 118.825C353.53 119.105 353.135 119.5 352.845 120.01C352.565 120.52 352.425 121.1 352.425 121.75C352.425 122.4 352.565 122.98 352.845 123.49C353.135 124 353.53 124.4 354.03 124.69C354.53 124.97 355.09 125.11 355.71 125.11ZM363.281 116.5H368.051C369.191 116.5 370.196 116.72 371.066 117.16C371.946 117.59 372.626 118.2 373.106 118.99C373.596 119.78 373.841 120.7 373.841 121.75C373.841 122.8 373.596 123.72 373.106 124.51C372.626 125.3 371.946 125.915 371.066 126.355C370.196 126.785 369.191 127 368.051 127H363.281V116.5ZM367.931 125.005C368.981 125.005 369.816 124.715 370.436 124.135C371.066 123.545 371.381 122.75 371.381 121.75C371.381 120.75 371.066 119.96 370.436 119.38C369.816 118.79 368.981 118.495 367.931 118.495H365.711V125.005H367.931ZM383.804 125.05V127H375.674V116.5H383.609V118.45H378.089V120.73H382.964V122.62H378.089V125.05H383.804ZM389.187 127.18C388.357 127.18 387.552 127.07 386.772 126.85C386.002 126.62 385.382 126.325 384.912 125.965L385.737 124.135C386.187 124.465 386.722 124.73 387.342 124.93C387.962 125.13 388.582 125.23 389.202 125.23C389.892 125.23 390.402 125.13 390.732 124.93C391.062 124.72 391.227 124.445 391.227 124.105C391.227 123.855 391.127 123.65 390.927 123.49C390.737 123.32 390.487 123.185 390.177 123.085C389.877 122.985 389.467 122.875 388.947 122.755C388.147 122.565 387.492 122.375 386.982 122.185C386.472 121.995 386.032 121.69 385.662 121.27C385.302 120.85 385.122 120.29 385.122 119.59C385.122 118.98 385.287 118.43 385.617 117.94C385.947 117.44 386.442 117.045 387.102 116.755C387.772 116.465 388.587 116.32 389.547 116.32C390.217 116.32 390.872 116.4 391.512 116.56C392.152 116.72 392.712 116.95 393.192 117.25L392.442 119.095C391.472 118.545 390.502 118.27 389.532 118.27C388.852 118.27 388.347 118.38 388.017 118.6C387.697 118.82 387.537 119.11 387.537 119.47C387.537 119.83 387.722 120.1 388.092 120.28C388.472 120.45 389.047 120.62 389.817 120.79C390.617 120.98 391.272 121.17 391.782 121.36C392.292 121.55 392.727 121.85 393.087 122.26C393.457 122.67 393.642 123.225 393.642 123.925C393.642 124.525 393.472 125.075 393.132 125.575C392.802 126.065 392.302 126.455 391.632 126.745C390.962 127.035 390.147 127.18 389.187 127.18ZM399.128 122.875L397.718 124.345V127H395.303V116.5H397.718V121.405L402.368 116.5H405.068L400.718 121.18L405.323 127H402.488L399.128 122.875ZM410.714 116.5H413.129V123.34L418.139 116.5H420.419V127H418.019V120.175L413.009 127H410.714V116.5ZM434.317 121.585H436.537V125.845C435.967 126.275 435.307 126.605 434.557 126.835C433.807 127.065 433.052 127.18 432.292 127.18C431.202 127.18 430.222 126.95 429.352 126.49C428.482 126.02 427.797 125.375 427.297 124.555C426.807 123.725 426.562 122.79 426.562 121.75C426.562 120.71 426.807 119.78 427.297 118.96C427.797 118.13 428.487 117.485 429.367 117.025C430.247 116.555 431.237 116.32 432.337 116.32C433.257 116.32 434.092 116.475 434.842 116.785C435.592 117.095 436.222 117.545 436.732 118.135L435.172 119.575C434.422 118.785 433.517 118.39 432.457 118.39C431.787 118.39 431.192 118.53 430.672 118.81C430.152 119.09 429.747 119.485 429.457 119.995C429.167 120.505 429.022 121.09 429.022 121.75C429.022 122.4 429.167 122.98 429.457 123.49C429.747 124 430.147 124.4 430.657 124.69C431.177 124.97 431.767 125.11 432.427 125.11C433.127 125.11 433.757 124.96 434.317 124.66V121.585ZM445.484 127L443.459 124.075H443.339H441.224V127H438.794V116.5H443.339C444.269 116.5 445.074 116.655 445.754 116.965C446.444 117.275 446.974 117.715 447.344 118.285C447.714 118.855 447.899 119.53 447.899 120.31C447.899 121.09 447.709 121.765 447.329 122.335C446.959 122.895 446.429 123.325 445.739 123.625L448.094 127H445.484ZM445.439 120.31C445.439 119.72 445.249 119.27 444.869 118.96C444.489 118.64 443.934 118.48 443.204 118.48H441.224V122.14H443.204C443.934 122.14 444.489 121.98 444.869 121.66C445.249 121.34 445.439 120.89 445.439 120.31ZM456.739 124.75H451.864L450.934 127H448.444L453.124 116.5H455.524L460.219 127H457.669L456.739 124.75ZM455.974 122.905L454.309 118.885L452.644 122.905H455.974ZM465.853 116.5C466.783 116.5 467.588 116.655 468.268 116.965C468.958 117.275 469.488 117.715 469.858 118.285C470.228 118.855 470.413 119.53 470.413 120.31C470.413 121.08 470.228 121.755 469.858 122.335C469.488 122.905 468.958 123.345 468.268 123.655C467.588 123.955 466.783 124.105 465.853 124.105H463.738V127H461.308V116.5H465.853ZM465.718 122.125C466.448 122.125 467.003 121.97 467.383 121.66C467.763 121.34 467.953 120.89 467.953 120.31C467.953 119.72 467.763 119.27 467.383 118.96C467.003 118.64 466.448 118.48 465.718 118.48H463.738V122.125H465.718ZM481.778 116.5V127H479.348V122.695H474.578V127H472.148V116.5H474.578V120.64H479.348V116.5H481.778ZM484.263 116.5H486.693V127H484.263V116.5ZM492.634 127.18C491.804 127.18 490.999 127.07 490.219 126.85C489.449 126.62 488.829 126.325 488.359 125.965L489.184 124.135C489.634 124.465 490.169 124.73 490.789 124.93C491.409 125.13 492.029 125.23 492.649 125.23C493.339 125.23 493.849 125.13 494.179 124.93C494.509 124.72 494.674 124.445 494.674 124.105C494.674 123.855 494.574 123.65 494.374 123.49C494.184 123.32 493.934 123.185 493.624 123.085C493.324 122.985 492.914 122.875 492.394 122.755C491.594 122.565 490.939 122.375 490.429 122.185C489.919 121.995 489.479 121.69 489.109 121.27C488.749 120.85 488.569 120.29 488.569 119.59C488.569 118.98 488.734 118.43 489.064 117.94C489.394 117.44 489.889 117.045 490.549 116.755C491.219 116.465 492.034 116.32 492.994 116.32C493.664 116.32 494.319 116.4 494.959 116.56C495.599 116.72 496.159 116.95 496.639 117.25L495.889 119.095C494.919 118.545 493.949 118.27 492.979 118.27C492.299 118.27 491.794 118.38 491.464 118.6C491.144 118.82 490.984 119.11 490.984 119.47C490.984 119.83 491.169 120.1 491.539 120.28C491.919 120.45 492.494 120.62 493.264 120.79C494.064 120.98 494.719 121.17 495.229 121.36C495.739 121.55 496.174 121.85 496.534 122.26C496.904 122.67 497.089 123.225 497.089 123.925C497.089 124.525 496.919 125.075 496.579 125.575C496.249 126.065 495.749 126.455 495.079 126.745C494.409 127.035 493.594 127.18 492.634 127.18ZM503.835 127.18C502.745 127.18 501.76 126.945 500.88 126.475C500.01 126.005 499.325 125.36 498.825 124.54C498.335 123.71 498.09 122.78 498.09 121.75C498.09 120.72 498.335 119.795 498.825 118.975C499.325 118.145 500.01 117.495 500.88 117.025C501.76 116.555 502.745 116.32 503.835 116.32C504.925 116.32 505.905 116.555 506.775 117.025C507.645 117.495 508.33 118.145 508.83 118.975C509.33 119.795 509.58 120.72 509.58 121.75C509.58 122.78 509.33 123.71 508.83 124.54C508.33 125.36 507.645 126.005 506.775 126.475C505.905 126.945 504.925 127.18 503.835 127.18ZM503.835 125.11C504.455 125.11 505.015 124.97 505.515 124.69C506.015 124.4 506.405 124 506.685 123.49C506.975 122.98 507.12 122.4 507.12 121.75C507.12 121.1 506.975 120.52 506.685 120.01C506.405 119.5 506.015 119.105 505.515 118.825C505.015 118.535 504.455 118.39 503.835 118.39C503.215 118.39 502.655 118.535 502.155 118.825C501.655 119.105 501.26 119.5 500.97 120.01C500.69 120.52 500.55 121.1 500.55 121.75C500.55 122.4 500.69 122.98 500.97 123.49C501.26 124 501.655 124.4 502.155 124.69C502.655 124.97 503.215 125.11 503.835 125.11ZM513.836 118.45V121.225H518.696V123.175H513.836V127H511.406V116.5H519.341V118.45H513.836ZM523.234 118.48H519.874V116.5H529.024V118.48H525.664V127H523.234V118.48Z" fill="#FFB000"/>
<defs>
<clipPath id="clip0">
<rect x="1" width="100.27" height="100.279" fill="white"/>
</clipPath>
</defs>
</svg>
