<svg width="531" height="131" viewBox="0 0 531 131" fill="none" xmlns="http://www.w3.org/2000/svg"><path d="M168.008 11.46c7.996 0 14.963 1.567 20.899 4.7 5.935 3.133 10.552 7.75 13.85 13.851 3.298 6.102 4.946 13.48 4.946 22.138v47.367H187.67V78.739h-39.572v20.777h-19.786V52.149c0-8.657 1.648-16.036 4.946-22.138 3.298-6.1 7.915-10.718 13.85-13.851 5.936-3.133 12.903-4.7 20.9-4.7zm19.662 51.201V50.294c0-7.173-1.773-12.574-5.318-16.201-3.545-3.71-8.367-5.566-14.468-5.566-6.183 0-11.047 1.855-14.592 5.566-3.463 3.627-5.194 9.028-5.194 16.2v12.368h39.572zM326.284 11.46c10.223 0 18.178 3.01 23.867 9.028 5.688 5.937 8.533 14.553 8.533 25.848v53.18H338.65V46.955c0-6.102-1.607-10.677-4.823-13.728-3.132-3.133-7.296-4.7-12.49-4.7-5.688 0-10.222 1.65-13.603 4.947-3.38 3.216-5.07 8.122-5.07 14.717v51.325h-20.033V46.955c0-6.102-1.484-10.677-4.452-13.728-2.968-3.133-7.008-4.7-12.119-4.7-5.606 0-10.099 1.65-13.479 4.947-3.38 3.216-5.071 8.122-5.071 14.717v51.325h-20.033V12.944h19.415V23.58c2.638-3.875 6.142-6.843 10.511-8.904 4.37-2.144 9.399-3.216 15.087-3.216 5.936 0 11.13 1.113 15.582 3.34 4.452 2.143 7.873 5.276 10.264 9.399 2.968-4.123 6.843-7.256 11.624-9.4 4.864-2.226 10.306-3.339 16.324-3.339zM406.876 101c-6.843 0-13.48-.907-19.91-2.72-6.348-1.897-11.46-4.33-15.334-7.298l6.801-15.088c3.71 2.721 8.121 4.906 13.232 6.555 5.111 1.649 10.223 2.473 15.334 2.473 5.689 0 9.893-.824 12.614-2.473 2.721-1.731 4.081-3.999 4.081-6.802 0-2.061-.825-3.752-2.473-5.07-1.567-1.402-3.628-2.515-6.184-3.34-2.473-.824-5.853-1.731-10.14-2.72-6.595-1.567-11.995-3.134-16.2-4.7-4.204-1.567-7.832-4.081-10.882-7.544-2.968-3.463-4.452-8.08-4.452-13.852 0-5.03 1.36-9.564 4.081-13.604 2.72-4.122 6.801-7.38 12.242-9.77 5.524-2.391 12.243-3.587 20.158-3.587 5.523 0 10.923.66 16.199 1.98 5.277 1.318 9.893 3.215 13.851 5.688l-6.183 15.212c-7.997-4.535-15.994-6.802-23.991-6.802-5.606 0-9.769.907-12.49 2.72-2.638 1.815-3.957 4.206-3.957 7.174s1.525 5.194 4.575 6.678c3.133 1.402 7.873 2.803 14.221 4.205 6.596 1.567 11.996 3.133 16.2 4.7 4.205 1.566 7.791 4.04 10.759 7.42 3.05 3.38 4.576 7.956 4.576 13.728 0 4.947-1.402 9.481-4.205 13.604-2.721 4.04-6.843 7.255-12.366 9.646-5.524 2.392-12.243 3.587-20.157 3.587z" fill="#303030"/><path d="M531 0h-71.622v71.627H531V0z" fill="#FBBF3A"/><path d="M500.043 32.052c3.792.618 6.699 2.04 8.718 4.267 2.02 2.184 3.03 4.905 3.03 8.162 0 2.515-.659 4.844-1.978 6.988-1.32 2.102-3.339 3.792-6.06 5.07-2.679 1.278-5.977 1.917-9.893 1.917-3.05 0-6.06-.392-9.027-1.175-2.927-.824-5.421-1.978-7.482-3.463l3.895-7.667c1.649 1.236 3.545 2.205 5.689 2.906 2.185.66 4.41.99 6.678.99 2.514 0 4.493-.475 5.935-1.423 1.443-.99 2.165-2.37 2.165-4.143 0-3.545-2.7-5.318-8.1-5.318h-4.576v-6.616l8.904-10.08h-18.426v-8.039h30.298v6.493l-9.77 11.13z" fill="#303030"/><g clip-path="url(#a)"><path d="M101.27 0H1v100.279h100.27V0z" fill="#FBBF3A"/><path fill-rule="evenodd" clip-rule="evenodd" d="M101.27 0h-2.722l-79.38 14.133-3.485 20.18 51.861-7.83-41.618 31.298 9.983 14.134 39.658-33.567L60.3 100.279h29.934l11.036-85.27V0z" fill="#fff"/><path fill-rule="evenodd" clip-rule="evenodd" d="M6.25 83.536l18.59-39.077-13.014 1.863L1 70.505v29.774h44.05l3.938-16.743H6.25z" fill="#231F20"/></g><path d="M8.415 124.75H3.54L2.61 127H.12l4.68-10.5h2.4l4.695 10.5h-2.55l-.93-2.25zm-.765-1.845l-1.665-4.02-1.665 4.02h3.33zm12.912-1.38c.64.19 1.13.5 1.47.93.34.43.51.96.51 1.59 0 .93-.355 1.655-1.065 2.175-.7.52-1.705.78-3.015.78h-5.175v-10.5h4.89c1.22 0 2.17.235 2.85.705.68.47 1.02 1.14 1.02 2.01 0 .52-.13.98-.39 1.38-.26.39-.625.7-1.095.93zm-4.86-.675h2.265c.53 0 .93-.105 1.2-.315.27-.22.405-.54.405-.96 0-.41-.14-.725-.42-.945-.27-.22-.665-.33-1.185-.33h-2.265v2.55zm2.67 4.35c1.14 0 1.71-.45 1.71-1.35 0-.87-.57-1.305-1.71-1.305h-2.67v2.655h2.67zm13.97-6.72h-3.36V127h-2.4v-8.52h-3.344v-1.98h9.105v1.98zm6.39 8.7c-1.09 0-2.075-.235-2.955-.705a5.318 5.318 0 0 1-2.055-1.935c-.49-.83-.735-1.76-.735-2.79s.245-1.955.735-2.775c.5-.83 1.185-1.48 2.055-1.95.88-.47 1.865-.705 2.955-.705s2.07.235 2.94.705c.87.47 1.555 1.12 2.055 1.95.5.82.75 1.745.75 2.775 0 1.03-.25 1.96-.75 2.79a5.318 5.318 0 0 1-2.055 1.935c-.87.47-1.85.705-2.94.705zm0-2.07c.62 0 1.18-.14 1.68-.42.5-.29.89-.69 1.17-1.2.29-.51.435-1.09.435-1.74 0-.65-.145-1.23-.435-1.74-.28-.51-.67-.905-1.17-1.185-.5-.29-1.06-.435-1.68-.435-.62 0-1.18.145-1.68.435-.5.28-.895.675-1.185 1.185-.28.51-.42 1.09-.42 1.74 0 .65.14 1.23.42 1.74.29.51.685.91 1.185 1.2.5.28 1.06.42 1.68.42zm12.162-8.61c.93 0 1.735.155 2.415.465.69.31 1.22.75 1.59 1.32.37.57.555 1.245.555 2.025 0 .77-.185 1.445-.555 2.025-.37.57-.9 1.01-1.59 1.32-.68.3-1.485.45-2.415.45h-2.115V127h-2.43v-10.5h4.545zm-.135 5.625c.73 0 1.285-.155 1.665-.465.38-.32.57-.77.57-1.35 0-.59-.19-1.04-.57-1.35-.38-.32-.935-.48-1.665-.48h-1.98v3.645h1.98zm6.298-5.625h2.415v6.84l5.01-6.84h2.28V127h-2.4v-6.825L59.352 127h-2.295v-10.5zm18.29 5.025c.61.21 1.084.54 1.424.99.35.44.525.955.525 1.545 0 .64-.21 1.195-.63 1.665-.42.47-.99.83-1.71 1.08-.71.25-1.49.375-2.34.375-.72 0-1.44-.09-2.16-.27a7.913 7.913 0 0 1-2.025-.825l.75-1.74c.46.28.965.495 1.515.645.56.14 1.105.21 1.635.21.72 0 1.315-.13 1.785-.39.48-.26.72-.625.72-1.095a.972.972 0 0 0-.495-.885c-.32-.2-.76-.3-1.32-.3h-2.565v-1.83h2.385c.49 0 .87-.1 1.14-.3a.96.96 0 0 0 .42-.825c0-.41-.2-.73-.6-.96-.39-.23-.895-.345-1.515-.345-.46 0-.935.065-1.425.195a5.42 5.42 0 0 0-1.395.555l-.735-1.89a7.766 7.766 0 0 1 3.6-.855c.82 0 1.575.12 2.265.36.69.24 1.24.59 1.65 1.05.41.46.615.995.615 1.605 0 .5-.135.945-.405 1.335s-.64.69-1.11.9zm8.883 5.655c-1.09 0-2.075-.235-2.955-.705a5.318 5.318 0 0 1-2.055-1.935c-.49-.83-.735-1.76-.735-2.79s.245-1.955.735-2.775c.5-.83 1.185-1.48 2.055-1.95.88-.47 1.865-.705 2.955-.705s2.07.235 2.94.705c.87.47 1.555 1.12 2.055 1.95.5.82.75 1.745.75 2.775 0 1.03-.25 1.96-.75 2.79a5.318 5.318 0 0 1-2.055 1.935c-.87.47-1.85.705-2.94.705zm0-2.07c.62 0 1.18-.14 1.68-.42.5-.29.89-.69 1.17-1.2.29-.51.435-1.09.435-1.74 0-.65-.145-1.23-.435-1.74-.28-.51-.67-.905-1.17-1.185-.5-.29-1.06-.435-1.68-.435-.62 0-1.18.145-1.68.435-.5.28-.895.675-1.185 1.185-.28.51-.42 1.09-.42 1.74 0 .65.14 1.23.42 1.74.29.51.685.91 1.185 1.2.5.28 1.06.42 1.68.42zm14.892-3.585c.64.19 1.13.5 1.47.93.34.43.51.96.51 1.59 0 .93-.355 1.655-1.065 2.175-.7.52-1.705.78-3.015.78h-5.175v-10.5h4.89c1.22 0 2.17.235 2.85.705.68.47 1.02 1.14 1.02 2.01 0 .52-.13.98-.39 1.38-.26.39-.625.7-1.095.93zm-4.86-.675h2.265c.53 0 .93-.105 1.2-.315.27-.22.405-.54.405-.96 0-.41-.14-.725-.42-.945-.27-.22-.665-.33-1.185-.33h-2.265v2.55zm2.67 4.35c1.14 0 1.71-.45 1.71-1.35 0-.87-.57-1.305-1.71-1.305h-2.67v2.655h2.67zm13.202-.45h-4.875l-.93 2.25h-2.49l4.68-10.5h2.4l4.695 10.5h-2.55l-.93-2.25zm-.765-1.845l-1.665-4.02-1.665 4.02h3.33zm15.267-6.405V127h-2.43v-4.305h-4.77V127h-2.43v-10.5h2.43v4.14h4.77v-4.14h2.43zm12.261 0V127h-2.43v-4.305h-4.77V127h-2.43v-10.5h2.43v4.14h4.77v-4.14h2.43zm7.716 3.45c1.28 0 2.26.285 2.94.855.69.57 1.035 1.415 1.035 2.535 0 1.19-.38 2.1-1.14 2.73-.75.62-1.81.93-3.18.93h-4.74v-10.5h2.415v3.45h2.67zm-.48 5.25c.63 0 1.12-.155 1.47-.465.36-.31.54-.76.54-1.35 0-1.09-.67-1.635-2.01-1.635h-2.19v3.45h2.19zm5.79-8.7h2.415V127h-2.415v-10.5zm5.029 0h2.415v6.84l5.01-6.84h2.28V127h-2.4v-6.825l-5.01 6.825h-2.295v-10.5zm4.845-.675c-1.92 0-2.89-.765-2.91-2.295h1.665c.02.73.435 1.095 1.245 1.095.4 0 .705-.09.915-.27.21-.19.32-.465.33-.825h1.665c-.01.75-.255 1.32-.735 1.71-.48.39-1.205.585-2.175.585zM181 116.5l-4.47 8.31c-.43.8-.95 1.405-1.56 1.815-.6.41-1.255.615-1.965.615-.55 0-1.12-.12-1.71-.36l.585-1.845c.42.13.77.195 1.05.195.3 0 .57-.07.81-.21.24-.15.46-.38.66-.69l.09-.12-4.14-7.71h2.595l2.79 5.64 2.88-5.64H181zm9.999 0V127h-2.4v-3.78c-.91.33-1.755.495-2.535.495-1.41 0-2.49-.335-3.24-1.005-.75-.68-1.125-1.655-1.125-2.925V116.5h2.4v3.015c0 .72.19 1.265.57 1.635.39.36.95.54 1.68.54.8 0 1.55-.155 2.25-.465V116.5h2.4zm10.741 8.55V127h-8.13v-10.5h7.935v1.95h-5.52v2.28h4.875v1.89h-4.875v2.43h5.715zm1.962-8.55h8.475v1.935h-6.06v2.16h2.91c1.27 0 2.235.265 2.895.795.67.53 1.005 1.295 1.005 2.295 0 1.05-.37 1.865-1.11 2.445-.74.58-1.785.87-3.135.87h-4.98v-10.5zm4.845 8.7c.62 0 1.095-.12 1.425-.36.33-.25.495-.61.495-1.08 0-.92-.64-1.38-1.92-1.38h-2.43v2.82h2.43zm15.86-8.7V127h-2.43v-4.305h-4.77V127h-2.43v-10.5h2.43v4.14h4.77v-4.14h2.43zm7.715 3.45c1.28 0 2.26.285 2.94.855.69.57 1.035 1.415 1.035 2.535 0 1.19-.38 2.1-1.14 2.73-.75.62-1.81.93-3.18.93h-4.74v-10.5h2.415v3.45h2.67zm-.48 5.25c.63 0 1.12-.155 1.47-.465.36-.31.54-.76.54-1.35 0-1.09-.67-1.635-2.01-1.635h-2.19v3.45h2.19zm5.79-8.7h2.415V127h-2.415v-10.5zm5.03 0h2.415v6.84l5.01-6.84h2.28V127h-2.4v-6.825l-5.01 6.825h-2.295v-10.5zm4.845-.675c-1.92 0-2.89-.765-2.91-2.295h1.665c.02.73.435 1.095 1.245 1.095.4 0 .705-.09.915-.27.21-.19.32-.465.33-.825h1.665c-.01.75-.255 1.32-.735 1.71-.48.39-1.205.585-2.175.585zm22.733 9.195v4.2h-2.235V127h-8.775v-10.5h2.415v8.52h4.68v-8.52h2.415v8.52h1.5zm9.732.03V127h-8.13v-10.5h7.935v1.95h-5.52v2.28h4.875v1.89h-4.875v2.43h5.715zm11.593-8.55V127h-2.43v-4.305h-4.77V127h-2.43v-10.5h2.43v4.14h4.77v-4.14h2.43zm10.655 1.98h-3.36V127h-2.4v-8.52h-3.345v-1.98h9.105v1.98zm6.071-1.98c.93 0 1.735.155 2.415.465.69.31 1.22.75 1.59 1.32.37.57.555 1.245.555 2.025 0 .77-.185 1.445-.555 2.025-.37.57-.9 1.01-1.59 1.32-.68.3-1.485.45-2.415.45h-2.115V127h-2.43v-10.5h4.545zm-.135 5.625c.73 0 1.285-.155 1.665-.465.38-.32.57-.77.57-1.35 0-.59-.19-1.04-.57-1.35-.38-.32-.935-.48-1.665-.48h-1.98v3.645h1.98z" fill="#303030"/><path d="M325.504 124.75h-4.875l-.93 2.25h-2.49l4.68-10.5h2.4l4.695 10.5h-2.55l-.93-2.25zm-.765-1.845l-1.665-4.02-1.665 4.02h3.33zm9.779 4.275c-1.5 0-2.67-.415-3.51-1.245-.83-.83-1.245-2.015-1.245-3.555v-5.88h2.43v5.79c0 1.88.78 2.82 2.34 2.82.76 0 1.34-.225 1.74-.675.4-.46.6-1.175.6-2.145v-5.79h2.4v5.88c0 1.54-.42 2.725-1.26 3.555-.83.83-1.995 1.245-3.495 1.245zm9.156-8.7h-3.36v-1.98h9.15v1.98h-3.36V127h-2.43v-8.52zm12.036 8.7c-1.09 0-2.075-.235-2.955-.705a5.318 5.318 0 0 1-2.055-1.935c-.49-.83-.735-1.76-.735-2.79s.245-1.955.735-2.775c.5-.83 1.185-1.48 2.055-1.95.88-.47 1.865-.705 2.955-.705s2.07.235 2.94.705c.87.47 1.555 1.12 2.055 1.95.5.82.75 1.745.75 2.775 0 1.03-.25 1.96-.75 2.79a5.318 5.318 0 0 1-2.055 1.935c-.87.47-1.85.705-2.94.705zm0-2.07c.62 0 1.18-.14 1.68-.42.5-.29.89-.69 1.17-1.2.29-.51.435-1.09.435-1.74 0-.65-.145-1.23-.435-1.74-.28-.51-.67-.905-1.17-1.185-.5-.29-1.06-.435-1.68-.435-.62 0-1.18.145-1.68.435-.5.28-.895.675-1.185 1.185-.28.51-.42 1.09-.42 1.74 0 .65.14 1.23.42 1.74.29.51.685.91 1.185 1.2.5.28 1.06.42 1.68.42zm7.571-8.61h4.77c1.14 0 2.145.22 3.015.66.88.43 1.56 1.04 2.04 1.83.49.79.735 1.71.735 2.76 0 1.05-.245 1.97-.735 2.76-.48.79-1.16 1.405-2.04 1.845-.87.43-1.875.645-3.015.645h-4.77v-10.5zm4.65 8.505c1.05 0 1.885-.29 2.505-.87.63-.59.945-1.385.945-2.385 0-1-.315-1.79-.945-2.37-.62-.59-1.455-.885-2.505-.885h-2.22v6.51h2.22zm15.873.045V127h-8.13v-10.5h7.935v1.95h-5.52v2.28h4.875v1.89h-4.875v2.43h5.715zm5.383 2.13c-.83 0-1.635-.11-2.415-.33-.77-.23-1.39-.525-1.86-.885l.825-1.83c.45.33.985.595 1.605.795.62.2 1.24.3 1.86.3.69 0 1.2-.1 1.53-.3.33-.21.495-.485.495-.825 0-.25-.1-.455-.3-.615-.19-.17-.44-.305-.75-.405-.3-.1-.71-.21-1.23-.33-.8-.19-1.455-.38-1.965-.57a3.25 3.25 0 0 1-1.32-.915c-.36-.42-.54-.98-.54-1.68 0-.61.165-1.16.495-1.65.33-.5.825-.895 1.485-1.185.67-.29 1.485-.435 2.445-.435.67 0 1.325.08 1.965.24.64.16 1.2.39 1.68.69l-.75 1.845c-.97-.55-1.94-.825-2.91-.825-.68 0-1.185.11-1.515.33-.32.22-.48.51-.48.87s.185.63.555.81c.38.17.955.34 1.725.51.8.19 1.455.38 1.965.57.51.19.945.49 1.305.9.37.41.555.965.555 1.665 0 .6-.17 1.15-.51 1.65-.33.49-.83.88-1.5 1.17-.67.29-1.485.435-2.445.435zm9.941-4.305l-1.41 1.47V127h-2.415v-10.5h2.415v4.905l4.65-4.905h2.7l-4.35 4.68 4.605 5.82h-2.835l-3.36-4.125zm11.586-6.375h2.415v6.84l5.01-6.84h2.28V127h-2.4v-6.825l-5.01 6.825h-2.295v-10.5zm23.603 5.085h2.22v4.26c-.57.43-1.23.76-1.98.99-.75.23-1.505.345-2.265.345-1.09 0-2.07-.23-2.94-.69a5.318 5.318 0 0 1-2.055-1.935c-.49-.83-.735-1.765-.735-2.805 0-1.04.245-1.97.735-2.79a5.15 5.15 0 0 1 2.07-1.935c.88-.47 1.87-.705 2.97-.705.92 0 1.755.155 2.505.465.75.31 1.38.76 1.89 1.35l-1.56 1.44c-.75-.79-1.655-1.185-2.715-1.185-.67 0-1.265.14-1.785.42-.52.28-.925.675-1.215 1.185-.29.51-.435 1.095-.435 1.755 0 .65.145 1.23.435 1.74.29.51.69.91 1.2 1.2.52.28 1.11.42 1.77.42.7 0 1.33-.15 1.89-.45v-3.075zM445.484 127l-2.025-2.925h-2.235V127h-2.43v-10.5h4.545c.93 0 1.735.155 2.415.465.69.31 1.22.75 1.59 1.32.37.57.555 1.245.555 2.025 0 .78-.19 1.455-.57 2.025-.37.56-.9.99-1.59 1.29l2.355 3.375h-2.61zm-.045-6.69c0-.59-.19-1.04-.57-1.35-.38-.32-.935-.48-1.665-.48h-1.98v3.66h1.98c.73 0 1.285-.16 1.665-.48.38-.32.57-.77.57-1.35zm11.3 4.44h-4.875l-.93 2.25h-2.49l4.68-10.5h2.4l4.695 10.5h-2.55l-.93-2.25zm-.765-1.845l-1.665-4.02-1.665 4.02h3.33zm9.879-6.405c.93 0 1.735.155 2.415.465.69.31 1.22.75 1.59 1.32.37.57.555 1.245.555 2.025 0 .77-.185 1.445-.555 2.025-.37.57-.9 1.01-1.59 1.32-.68.3-1.485.45-2.415.45h-2.115V127h-2.43v-10.5h4.545zm-.135 5.625c.73 0 1.285-.155 1.665-.465.38-.32.57-.77.57-1.35 0-.59-.19-1.04-.57-1.35-.38-.32-.935-.48-1.665-.48h-1.98v3.645h1.98zm16.06-5.625V127h-2.43v-4.305h-4.77V127h-2.43v-10.5h2.43v4.14h4.77v-4.14h2.43zm2.485 0h2.43V127h-2.43v-10.5zm8.371 10.68c-.83 0-1.635-.11-2.415-.33-.77-.23-1.39-.525-1.86-.885l.825-1.83c.45.33.985.595 1.605.795.62.2 1.24.3 1.86.3.69 0 1.2-.1 1.53-.3.33-.21.495-.485.495-.825 0-.25-.1-.455-.3-.615-.19-.17-.44-.305-.75-.405-.3-.1-.71-.21-1.23-.33-.8-.19-1.455-.38-1.965-.57a3.25 3.25 0 0 1-1.32-.915c-.36-.42-.54-.98-.54-1.68 0-.61.165-1.16.495-1.65.33-.5.825-.895 1.485-1.185.67-.29 1.485-.435 2.445-.435.67 0 1.325.08 1.965.24.64.16 1.2.39 1.68.69l-.75 1.845c-.97-.55-1.94-.825-2.91-.825-.68 0-1.185.11-1.515.33-.32.22-.48.51-.48.87s.185.63.555.81c.38.17.955.34 1.725.51.8.19 1.455.38 1.965.57.51.19.945.49 1.305.9.37.41.555.965.555 1.665 0 .6-.17 1.15-.51 1.65-.33.49-.83.88-1.5 1.17-.67.29-1.485.435-2.445.435zm11.201 0c-1.09 0-2.075-.235-2.955-.705a5.318 5.318 0 0 1-2.055-1.935c-.49-.83-.735-1.76-.735-2.79s.245-1.955.735-2.775c.5-.83 1.185-1.48 2.055-1.95.88-.47 1.865-.705 2.955-.705s2.07.235 2.94.705c.87.47 1.555 1.12 2.055 1.95.5.82.75 1.745.75 2.775 0 1.03-.25 1.96-.75 2.79a5.318 5.318 0 0 1-2.055 1.935c-.87.47-1.85.705-2.94.705zm0-2.07c.62 0 1.18-.14 1.68-.42.5-.29.89-.69 1.17-1.2.29-.51.435-1.09.435-1.74 0-.65-.145-1.23-.435-1.74-.28-.51-.67-.905-1.17-1.185-.5-.29-1.06-.435-1.68-.435-.62 0-1.18.145-1.68.435-.5.28-.895.675-1.185 1.185-.28.51-.42 1.09-.42 1.74 0 .65.14 1.23.42 1.74.29.51.685.91 1.185 1.2.5.28 1.06.42 1.68.42zm10.001-6.66v2.775h4.86v1.95h-4.86V127h-2.43v-10.5h7.935v1.95h-5.505zm9.398.03h-3.36v-1.98h9.15v1.98h-3.36V127h-2.43v-8.52z" fill="#FFB000"/><defs><clipPath id="a"><path fill="#fff" d="M1 0h100.27v100.279H1z"/></clipPath></defs></svg>