<svg width="185" height="36" viewBox="0 0 185 36" fill="none" xmlns="http://www.w3.org/2000/svg"><path d="M58.295 4c2.791 0 5.223.547 7.295 1.64 2.072 1.094 3.683 2.705 4.835 4.835 1.15 2.13 1.726 4.705 1.726 7.726v16.533h-6.993v-7.252H51.345v7.252H44.44V18.2c0-3.021.575-5.597 1.727-7.726 1.15-2.13 2.762-3.741 4.834-4.835C53.072 4.547 55.504 4 58.295 4zm6.863 17.87v-4.316c0-2.504-.618-4.388-1.856-5.655-1.237-1.295-2.92-1.942-5.05-1.942-2.158 0-3.856.647-5.094 1.942-1.208 1.267-1.813 3.151-1.813 5.655v4.317h13.813zM113.542 4c3.569 0 6.346 1.05 8.331 3.151 1.986 2.072 2.979 5.08 2.979 9.022v18.56h-6.993V16.39c0-2.13-.561-3.727-1.683-4.792-1.094-1.093-2.547-1.64-4.36-1.64-1.986 0-3.568.575-4.748 1.726-1.18 1.123-1.77 2.835-1.77 5.137v17.914h-6.993V16.388c0-2.129-.518-3.726-1.554-4.79-1.036-1.094-2.446-1.641-4.23-1.641-1.957 0-3.525.575-4.705 1.726-1.18 1.123-1.77 2.835-1.77 5.137v17.914h-6.993V4.518h6.777V8.23c.921-1.352 2.144-2.388 3.67-3.108C91.024 4.374 92.78 4 94.765 4c2.072 0 3.884.388 5.438 1.165 1.554.749 2.749 1.842 3.583 3.281 1.036-1.439 2.389-2.532 4.058-3.28C109.542 4.387 111.442 4 113.542 4zm28.132 31.252a25.48 25.48 0 0 1-6.95-.95c-2.216-.662-4-1.51-5.353-2.547l2.375-5.266c1.294.95 2.834 1.712 4.618 2.288 1.784.575 3.569.863 5.353.863 1.985 0 3.453-.288 4.403-.863.949-.604 1.424-1.396 1.424-2.374 0-.72-.288-1.31-.863-1.77-.547-.49-1.266-.878-2.159-1.165-.863-.288-2.043-.605-3.539-.95-2.302-.547-4.187-1.094-5.655-1.64a9.349 9.349 0 0 1-3.798-2.633c-1.036-1.209-1.554-2.82-1.554-4.835 0-1.755.475-3.338 1.424-4.748.95-1.439 2.374-2.576 4.274-3.41C137.602 4.417 139.947 4 142.71 4c1.928 0 3.812.23 5.654.69 1.842.461 3.453 1.123 4.835 1.986l-2.159 5.31c-2.791-1.583-5.582-2.374-8.374-2.374-1.956 0-3.41.316-4.359.95-.921.632-1.382 1.467-1.382 2.503s.533 1.813 1.597 2.33c1.094.49 2.749.98 4.965 1.468 2.302.547 4.187 1.094 5.654 1.64a9.197 9.197 0 0 1 3.756 2.59c1.064 1.18 1.597 2.777 1.597 4.792 0 1.726-.49 3.31-1.468 4.748-.95 1.41-2.388 2.533-4.316 3.367-1.929.834-4.274 1.252-7.036 1.252z" fill="#303030"/><path d="M185 0h-25v25h25V0z" fill="#FBBF3A"/><path d="M174.194 11.187c1.324.216 2.338.712 3.043 1.49.706.762 1.058 1.712 1.058 2.848 0 .878-.23 1.69-.691 2.439-.46.734-1.165 1.324-2.115 1.77-.935.446-2.086.669-3.453.669-1.065 0-2.115-.137-3.151-.41-1.022-.288-1.892-.69-2.612-1.209l1.36-2.676c.576.431 1.238.77 1.986 1.014.762.23 1.539.346 2.331.346.877 0 1.568-.166 2.072-.497.503-.345.755-.827.755-1.446 0-1.237-.942-1.856-2.827-1.856h-1.597v-2.31l3.107-3.517h-6.431V5.036h10.575v2.266l-3.41 3.885z" fill="#303030"/><path d="M35 0H0v35h35V0z" fill="#FBBF3A"/><path fill-rule="evenodd" clip-rule="evenodd" d="M35 0h-.95L6.342 4.933l-1.217 7.043 18.103-2.732L8.7 20.167l3.485 4.933 13.843-11.716L20.699 35h10.449L35 5.238V0z" fill="#fff"/><path fill-rule="evenodd" clip-rule="evenodd" d="M1.833 29.156L8.32 15.517l-4.542.65L0 24.609V35h15.376l1.374-5.844H1.833z" fill="#231F20"/></svg>