<svg width="85" height="19" viewBox="0 0 85 19" fill="none" xmlns="http://www.w3.org/2000/svg"><g clip-path="url(#a)"><path d="M26.533 2.973A3.397 3.397 0 0 0 24.145.58C22.025 0 13.545 0 13.545 0s-8.48 0-10.6.559A3.467 3.467 0 0 0 .559 2.973C0 5.096 0 9.5 0 9.5s0 4.426.558 6.527a3.397 3.397 0 0 0 2.388 2.392c2.142.581 10.6.581 10.6.581s8.48 0 10.6-.559a3.397 3.397 0 0 0 2.387-2.392c.558-2.123.558-6.527.558-6.527s.022-4.426-.558-6.55z" fill="#F00"/><path d="M10.845 13.568L17.897 9.5l-7.052-4.068v8.136z" fill="#fff"/><path d="M39.342 17.301c-.535-.357-.915-.916-1.138-1.699-.223-.76-.334-1.788-.334-3.04v-1.72c0-1.275.133-2.303.379-3.085.268-.783.67-1.342 1.205-1.7.558-.357 1.272-.536 2.164-.536.87 0 1.585.18 2.12.537.536.357.916.939 1.16 1.699.246.76.38 1.788.38 3.084v1.721c0 1.274-.111 2.28-.357 3.063-.245.76-.625 1.34-1.16 1.699-.536.357-1.272.536-2.187.536-.937-.022-1.696-.201-2.232-.559zm3.013-1.877c.156-.38.223-1.029.223-1.9V9.813c0-.85-.067-1.475-.223-1.878-.156-.402-.402-.58-.781-.58-.357 0-.625.2-.759.58-.156.403-.223 1.029-.223 1.878v3.71c0 .872.067 1.52.223 1.9.134.38.402.582.781.582.357 0 .603-.18.759-.581zm38.182-2.839v.603c0 .76.022 1.341.067 1.721.044.38.134.671.29.827.134.18.357.269.67.269.401 0 .669-.157.825-.47.156-.313.223-.827.246-1.564l2.298.134c.022.111.022.246.022.424 0 1.096-.29 1.923-.892 2.46-.603.536-1.45.804-2.544.804-1.317 0-2.232-.425-2.767-1.252-.536-.827-.804-2.101-.804-3.845v-2.078c0-1.789.268-3.085.826-3.912.558-.827 1.495-1.23 2.812-1.23.915 0 1.629.18 2.12.515.49.335.825.871 1.026 1.564.201.716.29 1.7.29 2.95v2.035h-4.485v.045zm.335-5.007c-.134.178-.224.447-.268.827-.045.38-.067.96-.067 1.743v.85H82.5v-.85c0-.76-.023-1.341-.067-1.743-.045-.403-.156-.67-.29-.827-.134-.157-.357-.246-.625-.246-.313-.023-.514.067-.647.246zm-48.046 4.783l-3.035-11.02h2.656l1.071 4.985c.268 1.23.469 2.28.602 3.152h.068c.089-.626.29-1.654.602-3.13l1.116-5.007h2.655l-3.08 11.02v5.276h-2.633V12.36h-.022zm21.088-6.616v11.914h-2.097l-.223-1.453h-.067c-.558 1.095-1.428 1.654-2.567 1.654-.78 0-1.36-.268-1.74-.782-.38-.514-.558-1.32-.558-2.437V5.745h2.678v8.74c0 .536.067.916.178 1.14.112.223.313.335.58.335.224 0 .447-.067.67-.224.223-.134.38-.312.469-.536V5.745h2.677zm13.724 0v11.914h-2.097l-.223-1.453h-.067c-.558 1.095-1.429 1.654-2.567 1.654-.78 0-1.36-.268-1.74-.782-.38-.514-.558-1.32-.558-2.437V5.745h2.678v8.74c0 .536.067.916.178 1.14.112.223.313.335.58.335.224 0 .447-.067.67-.224.223-.134.38-.312.469-.536V5.745h2.677z" fill="#282828"/><path d="M61.19 3.51h-2.656v14.127h-2.611V3.509h-2.656V1.341h7.922V3.51zm15.308 4.135c-.156-.76-.424-1.297-.781-1.632-.357-.335-.87-.514-1.495-.514-.491 0-.96.134-1.384.425a2.733 2.733 0 0 0-.982 1.095h-.022V.738h-2.589v16.899h2.21l.267-1.118h.067c.201.402.513.715.937.961.424.224.87.358 1.384.358.915 0 1.562-.425 1.986-1.252.424-.827.647-2.146.647-3.912v-1.877c-.022-1.364-.089-2.415-.245-3.152zm-2.455 4.85c0 .872-.045 1.543-.112 2.034-.066.492-.2.85-.357 1.051a.868.868 0 0 1-.669.313c-.223 0-.424-.045-.603-.157a1.29 1.29 0 0 1-.446-.469v-6.75c.09-.313.246-.582.469-.805.223-.201.468-.313.714-.313.268 0 .49.112.625.313.156.223.245.581.312 1.073.067.514.09 1.23.09 2.146v1.564h-.023z" fill="#282828"/></g><defs><clipPath id="a"><path fill="#fff" d="M0 0h85v19H0z"/></clipPath></defs></svg>